<?xml version="1.0" encoding="utf-8"?>
<!-- Generator: Adobe Illustrator 16.0.0, SVG Export Plug-In . SVG Version: 6.00 Build 0)  -->
<!DOCTYPE svg PUBLIC "-//W3C//DTD SVG 1.1//EN" "http://www.w3.org/Graphics/SVG/1.1/DTD/svg11.dtd">
<svg version="1.1" id="Layer_1" xmlns="http://www.w3.org/2000/svg" xmlns:xlink="http://www.w3.org/1999/xlink" x="0px" y="0px"
	 width="7.592px" height="7.583px" viewBox="0 0 7.592 7.583" enable-background="new 0 0 7.592 7.583" xml:space="preserve">
<path fill="#4D565D" d="M-18.664,469.776v-0.102c0-1.353,0-2.705,0-4.057c-0.001-0.179,0.049-0.332,0.222-0.409
	c0.178-0.077,0.357-0.075,0.522,0.041c0.116,0.081,0.158,0.201,0.158,0.339c0,0.695,0,1.391,0,2.086c0,0.023,0,0.047,0,0.071
	c0.002,0.072,0.043,0.11,0.111,0.111c0.066,0.002,0.102-0.04,0.109-0.104c0.004-0.031,0.003-0.064,0.003-0.098
	c0.001-0.831,0-1.662,0.001-2.494c0-0.242,0.105-0.398,0.318-0.434c0.249-0.043,0.482,0.004,0.565,0.291
	c0.013,0.043,0.012,0.093,0.012,0.14c0.001,0.914,0,1.829,0,2.743c0,0.025-0.002,0.053,0.002,0.08
	c0.008,0.064,0.053,0.109,0.112,0.1c0.041-0.007,0.08-0.055,0.109-0.094c0.015-0.02,0.006-0.057,0.006-0.087
	c0-0.688,0.007-1.378-0.003-2.068c-0.005-0.289,0.21-0.455,0.447-0.442c0.229,0.012,0.375,0.093,0.431,0.278
	c0.016,0.056,0.017,0.117,0.017,0.175c0.001,0.803,0.001,1.604,0.001,2.406c0,0.023-0.001,0.047,0,0.071
	c0.003,0.099,0.039,0.144,0.118,0.144c0.076,0.002,0.11-0.043,0.11-0.146c0-0.485-0.001-0.971,0-1.455
	c0.001-0.194,0.118-0.319,0.321-0.348c0.22-0.03,0.395,0.063,0.447,0.242c0.01,0.033,0.014,0.069,0.014,0.104
	c0,1.019,0.002,2.036-0.002,3.054c-0.002,0.426-0.115,0.83-0.279,1.217c-0.156,0.366-0.342,0.719-0.516,1.076
	c-0.049,0.102-0.131,0.143-0.243,0.143c-0.84-0.002-1.681-0.002-2.521,0c-0.101,0-0.174-0.039-0.23-0.121
	c-0.624-0.92-1.25-1.838-1.874-2.756c-0.092-0.135-0.075-0.25,0.054-0.348c0.203-0.152,0.431-0.167,0.665-0.093
	c0.257,0.081,0.443,0.253,0.591,0.472c0.062,0.092,0.123,0.185,0.184,0.276C-18.676,469.78-18.67,469.778-18.664,469.776"/>
<path fill="#4D565D" d="M3.786,7.581c-0.145,0-0.287-0.002-0.432,0.002C3.289,7.584,3.258,7.565,3.239,7.497
	C3.172,7.245,3.099,6.993,3.022,6.743c-0.014-0.039-0.058-0.082-0.098-0.1c-0.174-0.08-0.352-0.154-0.529-0.225
	C2.354,6.403,2.292,6.403,2.254,6.422c-0.231,0.121-0.459,0.25-0.687,0.381C1.513,6.836,1.476,6.84,1.425,6.788
	c-0.207-0.213-0.418-0.422-0.63-0.629C0.751,6.116,0.748,6.083,0.777,6.032c0.131-0.23,0.261-0.461,0.384-0.697
	C1.182,5.295,1.18,5.229,1.163,5.186C1.096,5.008,1.015,4.838,0.95,4.663C0.927,4.602,0.897,4.575,0.837,4.559
	c-0.252-0.07-0.502-0.146-0.754-0.215C0.019,4.329,0,4.301,0,4.237C0.003,3.94,0.003,3.643,0,3.344c0-0.063,0.019-0.09,0.083-0.105
	C0.335,3.17,0.585,3.092,0.837,3.024C0.898,3.008,0.927,2.981,0.95,2.92c0.065-0.176,0.147-0.346,0.213-0.522
	c0.017-0.044,0.019-0.11-0.002-0.15C1.038,2.013,0.908,1.781,0.777,1.551C0.748,1.5,0.75,1.468,0.794,1.425
	c0.216-0.21,0.429-0.422,0.639-0.637C1.478,0.742,1.51,0.747,1.56,0.774c0.229,0.132,0.461,0.263,0.694,0.388
	c0.035,0.019,0.093,0.021,0.131,0.005c0.185-0.07,0.368-0.148,0.55-0.229c0.034-0.017,0.073-0.052,0.084-0.086
	c0.078-0.253,0.152-0.508,0.221-0.764C3.258,0.02,3.288-0.001,3.354,0c0.295,0.003,0.588,0.003,0.881,0
	c0.067,0,0.099,0.018,0.117,0.087c0.068,0.256,0.142,0.51,0.221,0.763c0.012,0.037,0.055,0.074,0.093,0.092
	c0.175,0.079,0.351,0.154,0.53,0.222c0.041,0.017,0.103,0.018,0.141-0.003C5.569,1.038,5.797,0.91,6.024,0.78
	C6.08,0.747,6.117,0.743,6.167,0.795c0.207,0.212,0.418,0.422,0.631,0.629C6.841,1.468,6.844,1.5,6.815,1.551
	c-0.131,0.23-0.262,0.463-0.385,0.696C6.41,2.286,6.409,2.349,6.424,2.39c0.07,0.181,0.146,0.361,0.228,0.539
	c0.017,0.037,0.057,0.076,0.095,0.09c0.253,0.076,0.507,0.15,0.763,0.221c0.064,0.016,0.083,0.043,0.083,0.107
	c-0.003,0.297-0.003,0.594,0,0.893c0,0.063-0.021,0.09-0.083,0.105C7.257,4.413,7.007,4.491,6.755,4.559
	c-0.061,0.016-0.09,0.043-0.113,0.104C6.577,4.838,6.496,5.008,6.429,5.186C6.412,5.229,6.41,5.295,6.431,5.334
	c0.123,0.236,0.254,0.467,0.385,0.697c0.028,0.051,0.025,0.084-0.018,0.127C6.582,6.368,6.369,6.581,6.159,6.795
	C6.114,6.84,6.082,6.836,6.032,6.809C5.803,6.676,5.571,6.547,5.338,6.42C5.306,6.403,5.251,6.399,5.216,6.413
	c-0.188,0.072-0.374,0.15-0.559,0.232C4.623,6.661,4.584,6.698,4.573,6.733C4.495,6.985,4.421,7.241,4.353,7.497
	C4.334,7.565,4.304,7.584,4.237,7.583C4.087,7.579,3.937,7.581,3.786,7.581 M3.806,2.166C2.922,2.149,2.192,2.87,2.174,3.774
	C2.155,4.641,2.86,5.413,3.78,5.417C4.685,5.42,5.407,4.702,5.419,3.815C5.433,2.915,4.722,2.184,3.806,2.166"/>
</svg>
