<?xml version="1.0" encoding="utf-8"?>
<!-- Generator: Adobe Illustrator 16.0.0, SVG Export Plug-In . SVG Version: 6.00 Build 0)  -->
<!DOCTYPE svg PUBLIC "-//W3C//DTD SVG 1.1//EN" "http://www.w3.org/Graphics/SVG/1.1/DTD/svg11.dtd">
<svg version="1.1" id="Layer_1" xmlns="http://www.w3.org/2000/svg" xmlns:xlink="http://www.w3.org/1999/xlink" x="0px" y="0px"
	 width="167.882px" height="248.225px" viewBox="0 0 167.882 248.225" enable-background="new 0 0 167.882 248.225"
	 xml:space="preserve">
<path fill="#5A8BC8" d="M53.862,248.225L53.862,248.225c-17.181,0-31.232-14.054-31.232-31.236V146.05
	c0-17.179,14.052-31.232,31.232-31.232c17.179,0,31.232,14.054,31.232,31.232v70.938C85.095,234.171,71.041,248.225,53.862,248.225"
	/>
<g>
	<defs>
		<path id="SVGID_1_" d="M22.626,146.052v70.937c0,17.178,14.058,31.236,31.232,31.236c17.185,0,31.236-14.059,31.236-31.236
			v-70.937c0-17.179-14.052-31.232-31.236-31.232C36.684,114.82,22.626,128.874,22.626,146.052"/>
	</defs>
	<clipPath id="SVGID_2_">
		<use xlink:href="#SVGID_1_"  overflow="visible"/>
	</clipPath>
	<path clip-path="url(#SVGID_2_)" fill="#304B6C" d="M10.154,131.393c0,0,31.003-21.473,37.751,0.364
		c3.822,12.356,3.629,26.715,1.59,36c-1.527,6.96-6.506,11.335-13.634,11.251c-7.265-0.093-16.073-8.171-16.941-8.602
		c-1.584-0.796-16.809-5.562-16.809-5.562"/>
	<path clip-path="url(#SVGID_2_)" fill="#DBEAF8" d="M49.163,112.435c0,0,6.794,30.642,6.197,58.253
		c-0.177,8.26-7.354,14.565-15.586,13.869c-9.564-0.808-20.366-3.728-20.589-12.767c-0.394-16.274-0.794,24.421-0.794,24.421
		s57.97,15.879,71.867-2.582c13.895-18.461-8.339-78.217-8.339-78.217l-10.521,3.378c0,0,7.544,20.448,5.757,25.211
		c-1.787,4.766-10.125,1.984-11.117,1.783c-0.993-0.196-2.78-26.994-2.78-26.994"/>
	<g opacity="0.5" clip-path="url(#SVGID_2_)">
		<g>
			<defs>
				<rect id="SVGID_3_" x="-4.278" y="97.546" width="109.683" height="156.438"/>
			</defs>
			<clipPath id="SVGID_4_">
				<use xlink:href="#SVGID_3_"  overflow="visible"/>
			</clipPath>
			<path clip-path="url(#SVGID_4_)" fill="#5A8BC8" d="M31.893,117.795c0,0,16.079,13.3,33.354,8.734
				c17.27-4.566,24.019,3.179,24.216,4.765c0.197,1.589,3.973,80.402,3.973,81.593c0,0.128-0.044,0.418-0.122,0.84
				c-1.862,10.09-12.781,21.791-29.261,23.183c-16.847,1.419-32.064-3.712-40.696-17.669c-13.497-21.836-12.904-14.095-13.698-13.7
				c-0.796,0.397-19.453,2.778-12.309,24.818c7.147,22.032,99.064,34.144,105.02,11.513c5.951-22.631,1.383-63.728,0.989-70.476
				c-0.395-6.747-3.965-41.889-5.953-46.451c-1.985-4.567-9.729-16.678-13.301-18.069c-3.572-1.387-30.177-6.349-30.77-6.349
				c-0.598,0-17.868-2.982-17.868-2.982"/>
		</g>
	</g>
	<g opacity="0.4" clip-path="url(#SVGID_2_)">
		<g>
			<defs>
				<rect id="SVGID_5_" x="12.967" y="107.141" width="104.022" height="203.284"/>
			</defs>
			<clipPath id="SVGID_6_">
				<use xlink:href="#SVGID_5_"  overflow="visible"/>
			</clipPath>
			<g clip-path="url(#SVGID_6_)">
				<defs>
					<rect id="SVGID_7_" x="12.967" y="107.145" width="104.022" height="203.28"/>
				</defs>
				<clipPath id="SVGID_8_">
					<use xlink:href="#SVGID_7_"  overflow="visible"/>
				</clipPath>
				
					<linearGradient id="SVGID_9_" gradientUnits="userSpaceOnUse" x1="-161.6206" y1="835.9517" x2="-157.5032" y2="835.9517" gradientTransform="matrix(0 -8.529 -8.529 0 7194.8252 -1237.9175)">
					<stop  offset="0" style="stop-color:#FFFFFF"/>
					<stop  offset="1" style="stop-color:#2B3990"/>
				</linearGradient>
				<rect x="12.967" y="107.145" clip-path="url(#SVGID_8_)" fill="url(#SVGID_9_)" width="104.022" height="203.28"/>
			</g>
		</g>
	</g>
</g>
<path fill="#D95C35" d="M104.749,76.305c0,26.093-21.152,47.247-47.245,47.247c-26.096,0-47.251-21.154-47.251-47.247
	c0-26.094,21.156-47.248,47.251-47.248C83.597,29.058,104.749,50.211,104.749,76.305"/>
<g>
	<defs>
		<path id="SVGID_10_" d="M10.252,76.307c0,26.094,21.154,47.247,47.247,47.247c26.098,0,47.25-21.153,47.25-47.247
			s-21.152-47.246-47.25-47.246C31.406,29.062,10.252,50.213,10.252,76.307"/>
	</defs>
	<clipPath id="SVGID_11_">
		<use xlink:href="#SVGID_10_"  overflow="visible"/>
	</clipPath>
	<g opacity="0.5" clip-path="url(#SVGID_11_)">
		<g>
			<defs>
				<rect id="SVGID_12_" x="-20.496" y="55.458" width="75.112" height="70.468"/>
			</defs>
			<clipPath id="SVGID_13_">
				<use xlink:href="#SVGID_12_"  overflow="visible"/>
			</clipPath>
			<path clip-path="url(#SVGID_13_)" fill="#D95C35" d="M31.298,68.562c0,0-4.766,50.027,18.262,55.985
				c23.029,5.953-39.902-9.133-42.878-12.11c-2.978-2.978-10.922-9.928-15.488-19.456s-14.888-22.632-10.718-28.786
				c4.168-6.152,6.75-8.734,6.75-8.734"/>
		</g>
	</g>
</g>
<path fill="#304B6C" d="M109.104,68.148c-0.233-0.112-0.454-0.243-0.667-0.384c-5.779,3.08-44.664,2.974-55.666,2.482
	c-1.817-0.082-3.504,1.088-4.105,2.932c-3.881,11.904-2.702,26.337,14.691,26.938c29.17,1.013,25.995-15.416,32.819-9.981
	c3.04,2.417,5.412,3.776,7.25,4.496c2.698,1.06,5.545-1.156,5.569-4.24c0.057-6.424,0.068-18.25,0.137-22.203
	C109.12,68.176,109.111,68.16,109.104,68.148"/>
<g>
	<defs>
		<path id="SVGID_14_" d="M52.772,70.247c-1.821-0.082-3.508,1.086-4.109,2.932c-3.881,11.902-2.702,26.337,14.691,26.938
			c12.946,0.452,19.517-2.534,23.426-5.52c4.896-3.737,5.6-7.481,9.397-4.464c3.038,2.419,5.41,3.782,7.252,4.498
			c2.694,1.062,5.537-1.158,5.565-4.238c0.057-6.426,0.072-18.252,0.137-22.201c-0.008-0.018-0.016-0.03-0.024-0.042
			c-0.241-0.11-0.454-0.247-0.667-0.382C102.657,70.842,63.774,70.735,52.772,70.247"/>
	</defs>
	<clipPath id="SVGID_15_">
		<use xlink:href="#SVGID_14_"  overflow="visible"/>
	</clipPath>
	<g clip-path="url(#SVGID_15_)">
		<g>
			<defs>
				<rect id="SVGID_16_" x="58.294" y="57.646" width="44.275" height="45.854"/>
			</defs>
			<clipPath id="SVGID_17_">
				<use xlink:href="#SVGID_16_"  overflow="visible"/>
			</clipPath>
			<polyline clip-path="url(#SVGID_17_)" fill="#304B6C" points="77.354,64.394 58.296,103.504 76.558,103.301 91.251,66.181 
				96.809,65.786 89.265,97.151 95.817,96.356 102.565,65.985 100.78,58.041 97.205,57.644 			"/>
		</g>
	</g>
	<g clip-path="url(#SVGID_15_)">
		<g>
			<defs>
				<rect id="SVGID_18_" x="34.275" y="54.858" width="83.104" height="18.469"/>
			</defs>
			<clipPath id="SVGID_19_">
				<use xlink:href="#SVGID_18_"  overflow="visible"/>
			</clipPath>
			<path clip-path="url(#SVGID_19_)" fill="#314B6C" d="M46.385,73.128c0,0,66.31,1.787,70.082-5.36
				c3.771-7.144-4.371-13.104-19.859-12.902c-15.481,0.199-37.719,0-45.459,1.39c-7.741,1.391-16.873,2.382-16.873,2.382"/>
		</g>
	</g>
</g>
<path fill="#EED875" d="M61.406,1.595c0,0,33.591,8.055,34.723,19.473c0.264,2.624,2.841-0.567,3.11-2.035
	c0.266-1.47,0.611-11.746-21.951-17.635C64.165-2.028,61.406,1.595,61.406,1.595"/>
<path fill="#EECF48" d="M3.306,58.834c-0.062,0.256,4.452-4.405,5.159-7.278C16.984,17.139,15.77,8.333,40.629,3.646
	c37.916-7.144,61.659,2.656,64.514,40.955c1.263,16.83,6.257,16.467,6.257,16.467s-84.537,7.087-93.802,6.354
	C17.597,67.42,1.058,70.176,3.306,58.834"/>
<g>
	<defs>
		<path id="SVGID_20_" d="M40.625,3.646C15.77,8.333,16.98,17.139,8.465,51.56c-0.711,2.869-5.221,7.528-5.159,7.274
			c-2.252,11.342,14.293,8.588,14.293,8.588c9.265,0.731,93.8-6.36,93.8-6.36s-4.994,0.368-6.257-16.46
			C102.851,13.866,87.113,1.484,61.39,1.484C55.057,1.484,48.114,2.234,40.625,3.646"/>
	</defs>
	<clipPath id="SVGID_21_">
		<use xlink:href="#SVGID_20_"  overflow="visible"/>
	</clipPath>
	<g clip-path="url(#SVGID_21_)">
		<g>
			<defs>
				<rect id="SVGID_22_" x="-18.057" y="-2.971" width="60.017" height="77.344"/>
			</defs>
			<clipPath id="SVGID_23_">
				<use xlink:href="#SVGID_22_"  overflow="visible"/>
			</clipPath>
			<path clip-path="url(#SVGID_23_)" fill="#EECF48" d="M30.966-2.971c0,0-16.146,41.82-3.442,55.059
				c12.707,13.233,20.118,20.116,9.002,20.91c-11.119,0.794-17.999,1.588-24.353,1.32c-6.354-0.263-22.762,1.327-24.883-4.763
				c-2.117-6.086-8.734-27.264-3.175-38.382C-10.326,20.06-8.211,9.205-8.211,9.205"/>
		</g>
	</g>
	<g clip-path="url(#SVGID_21_)">
		<g>
			<defs>
				<rect id="SVGID_24_" x="22.763" y="8.942" width="43.146" height="12.926"/>
			</defs>
			<clipPath id="SVGID_25_">
				<use xlink:href="#SVGID_24_"  overflow="visible"/>
			</clipPath>
			<path clip-path="url(#SVGID_25_)" fill="#EECF48" d="M22.76,12.382c0,0,35.469-0.263,38.38,6.086
				c2.911,6.354,4.766,1.852,4.766,1.852s-0.795-6.617-2.648-6.617S27.26,8.939,27.26,8.939"/>
		</g>
	</g>
	<g clip-path="url(#SVGID_21_)">
		<g>
			<defs>
				<rect id="SVGID_26_" x="36.522" y="-1.118" width="50.057" height="21.053"/>
			</defs>
			<clipPath id="SVGID_27_">
				<use xlink:href="#SVGID_26_"  overflow="visible"/>
			</clipPath>
			<path clip-path="url(#SVGID_27_)" fill="#EECF48" d="M39.171,3.648c0,0,29.912,1.321,34.94,8.468
				c5.03,7.15,11.911,9.001,12.439,7.15c0.53-1.854-7.409-9.532-9.261-9.796c-1.854-0.265-17.473-7.413-17.473-7.413L48.699,1.794
				L36.522-1.118"/>
		</g>
	</g>
	<g clip-path="url(#SVGID_21_)">
		<g>
			<defs>
				<rect id="SVGID_28_" x="81.488" y="31.173" width="49.423" height="32.777"/>
			</defs>
			<clipPath id="SVGID_29_">
				<use xlink:href="#SVGID_28_"  overflow="visible"/>
			</clipPath>
			<path clip-path="url(#SVGID_29_)" fill="#EECF48" d="M108.126,41.762c0,0,1.585,17.604-21.575,21.041
				c-23.162,3.442,40.628-1.984,40.628-1.984s4.633-9.128,3.579-11.775c-1.062-2.648-7.149-15.882-8.734-17.867"/>
		</g>
	</g>
	<g clip-path="url(#SVGID_21_)">
		<g>
			<defs>
				<path id="SVGID_30_" d="M14.024,53.671L14.024,53.671z"/>
			</defs>
			<clipPath id="SVGID_31_">
				<use xlink:href="#SVGID_30_"  overflow="visible"/>
			</clipPath>
		</g>
	</g>
</g>
<path fill="#A9B4BF" d="M75.435,117.506c0,0-0.178-10.094,10.727-10.766c10.899-0.675,4.926,10.99,4.926,10.99"/>
<path fill="#EEDC8E" d="M0,64.233c0.02,1.576,1.272,2.877,2.863,3.116c5.011,0.742,20.15,2.813,38.153,3.626
	c38.189,1.713,60.981-0.879,68.373-1.949c1.58-0.227,2.782-1.508,2.871-3.067c0.152-2.614,0.056-6.519-0.945-6.911
	c-2.015-0.794-22.706,5.316-68.708,2.415c-20.301-1.284-33.049-2.805-38.329-3.509c-1.717-0.23-3.305,0.853-3.729,2.5
	C0.244,61.639-0.016,63.014,0,64.233"/>
<g>
	<defs>
		<path id="SVGID_32_" d="M0.551,60.454c-0.306,1.186-0.565,2.557-0.549,3.781c0.018,1.572,1.269,2.877,2.859,3.112
			c5.011,0.74,20.156,2.817,38.155,3.628c38.191,1.709,60.978-0.881,68.373-1.949c1.576-0.229,2.782-1.506,2.875-3.069
			c0.148-2.612,0.052-6.515-0.945-6.911c-0.877-0.338-5.264,0.613-13.702,1.568c-11.022,1.245-28.959,2.491-55.008,0.845
			c-20.306-1.28-33.049-2.801-38.333-3.509c-0.151-0.02-0.303-0.027-0.457-0.027C2.289,57.922,0.934,58.956,0.551,60.454"/>
	</defs>
	<clipPath id="SVGID_33_">
		<use xlink:href="#SVGID_32_"  overflow="visible"/>
	</clipPath>
	<path clip-path="url(#SVGID_33_)" fill="#EEDC8E" d="M14.026,53.673c0,0-4.238,17.472-5.56,17.735
		c-1.323,0.264-11.118,2.117-13.235,0.264c-2.115-1.854-3.706-0.264-3.706-3.969c0-3.706,1.06-10.06,3.706-11.382"/>
</g>
<path fill="#EEDD8E" d="M18.89,61.316c0,0-1.623-6.944,3.935-6.944c2.938,0,5.77,0.275,7.792,0.534
	c1.673,0.218,2.923,1.618,2.965,3.302c0.053,2.011,0.231,4.436,0.791,4.994c1.692,1.693,5.611,0.891,8.277,0.07
	c1.462-0.448,2.4-1.84,2.362-3.372c-0.044-2.074,0.522-4.738,3.756-4.738c2.892,0,5.702,0.555,7.658,1.054
	c1.557,0.399,2.628,1.819,2.573,3.43l-0.052,1.485c-0.066,1.944,1.498,3.551,3.438,3.535l31.379-0.239"/>
<path fill="#EED875" d="M23.884,10.263c0,0,37.872-0.933,41.754,9.864c0.895,2.477,8.141,0.893,8.141-0.599
	c0-4.566-6.946-14.504-34.144-14.292C18.293,5.401,23.884,10.263,23.884,10.263"/>
<path fill="#EED875" d="M45.889,2.852c0,0,29.309,0.179,35.437,13.202c4.715,10.027,13.539,4.835,13.996,4.616
	c2.182-1.042,1.351-16.228-31.171-20C44.051-1.665,45.889,2.852,45.889,2.852"/>
<path fill="#304B6C" d="M167.882,140.493c0,9.064-5.067,16.411-11.316,16.411c-6.253,0-11.315-7.347-11.315-16.411
	c0-9.063,5.063-16.408,11.315-16.408C162.814,124.084,167.882,131.429,167.882,140.493"/>
<path fill="#DAE8F7" d="M77.718,111.038c0,0,20.663-2.696,73.95-10.511c2.63-0.389,10.069,55.126,7.673,73.579
	c-2.396,18.458-76.838,21.104-76.838,21.104S65.22,112.492,77.718,111.038"/>
<g>
	<defs>
		<path id="SVGID_34_" d="M151.668,100.522C98.379,108.339,77.72,111.04,77.72,111.04c-12.5,1.45,4.781,84.17,4.781,84.17
			s74.443-2.646,76.84-21.1c2.389-18.393-4.986-73.592-7.645-73.588C151.688,100.522,151.676,100.522,151.668,100.522"/>
	</defs>
	<clipPath id="SVGID_35_">
		<use xlink:href="#SVGID_34_"  overflow="visible"/>
	</clipPath>
	<path clip-path="url(#SVGID_35_)" fill="#BBC7D3" d="M153.783,92.054c0,0-50.293,100.582-78.347,110.908
		c-28.059,10.318,38.376,36.264,59.29,24.884c20.91-11.389,68.288-13.504,73.054-29.914c4.769-16.41-2.115-58.231-11.646-77.557
		c-9.53-19.32-17.203-30.174-21.176-30.437"/>
</g>
<path fill="#304B6C" d="M88.139,157.563c0,9.064-7.345,16.415-16.408,16.415c-9.067,0-16.412-7.351-16.412-16.415
	c0-9.06,7.345-16.406,16.412-16.406C80.794,141.157,88.139,148.503,88.139,157.563"/>
</svg>
