<?xml version="1.0" encoding="utf-8"?>
<!-- Generator: Adobe Illustrator 16.0.0, SVG Export Plug-In . SVG Version: 6.00 Build 0)  -->
<!DOCTYPE svg PUBLIC "-//W3C//DTD SVG 1.1//EN" "http://www.w3.org/Graphics/SVG/1.1/DTD/svg11.dtd">
<svg version="1.1" id="Layer_1" xmlns="http://www.w3.org/2000/svg" xmlns:xlink="http://www.w3.org/1999/xlink" x="0px" y="0px"
	 width="5.723px" height="7.637px" viewBox="0 0 5.723 7.637" enable-background="new 0 0 5.723 7.637" xml:space="preserve">
<path fill="#4D565D" d="M-19.43,470.063v-0.102c0-1.353,0-2.705,0-4.057c-0.001-0.179,0.049-0.332,0.222-0.409
	c0.178-0.077,0.357-0.075,0.522,0.041c0.116,0.081,0.158,0.201,0.158,0.339c0,0.695,0,1.391,0,2.086c0,0.023,0,0.047,0,0.071
	c0.002,0.072,0.043,0.11,0.111,0.111c0.066,0.002,0.102-0.04,0.109-0.104c0.004-0.031,0.003-0.064,0.003-0.098
	c0.001-0.831,0-1.662,0.001-2.494c0-0.242,0.105-0.398,0.318-0.434c0.249-0.043,0.482,0.004,0.565,0.291
	c0.013,0.043,0.012,0.093,0.012,0.14c0.001,0.914,0,1.829,0,2.743c0,0.025-0.002,0.053,0.002,0.08
	c0.008,0.064,0.053,0.109,0.112,0.1c0.041-0.007,0.08-0.055,0.109-0.094c0.015-0.02,0.006-0.057,0.006-0.087
	c0-0.688,0.007-1.378-0.003-2.068c-0.005-0.289,0.21-0.455,0.447-0.442c0.229,0.012,0.375,0.093,0.431,0.278
	c0.016,0.056,0.017,0.117,0.017,0.175c0.001,0.803,0.001,1.604,0.001,2.406c0,0.023-0.001,0.047,0,0.071
	c0.003,0.099,0.039,0.144,0.118,0.144c0.076,0.002,0.11-0.043,0.11-0.146c0-0.485-0.001-0.971,0-1.455
	c0.001-0.194,0.118-0.319,0.321-0.348c0.22-0.03,0.395,0.063,0.447,0.242c0.01,0.033,0.014,0.069,0.014,0.104
	c0,1.019,0.002,2.036-0.002,3.054c-0.002,0.426-0.115,0.83-0.279,1.217c-0.156,0.366-0.342,0.719-0.516,1.076
	c-0.049,0.102-0.131,0.143-0.243,0.143c-0.84-0.002-1.681-0.002-2.521,0c-0.101,0-0.174-0.039-0.23-0.121
	c-0.624-0.92-1.25-1.838-1.874-2.756c-0.092-0.135-0.075-0.25,0.054-0.348c0.203-0.152,0.431-0.167,0.665-0.093
	c0.257,0.081,0.443,0.253,0.591,0.472c0.062,0.092,0.123,0.185,0.184,0.276C-19.442,470.067-19.436,470.065-19.43,470.063"/>
<path fill="#4D565D" d="M1.57,5.063V4.961c0-1.353,0-2.705,0-4.057C1.569,0.726,1.619,0.573,1.792,0.496
	C1.97,0.418,2.149,0.421,2.314,0.537C2.43,0.618,2.472,0.738,2.472,0.876c0,0.695,0,1.39,0,2.086c0,0.023,0,0.047,0,0.071
	c0.002,0.072,0.043,0.11,0.111,0.111c0.066,0.002,0.102-0.04,0.109-0.104c0.004-0.032,0.003-0.065,0.003-0.098
	c0.001-0.831,0-1.662,0.001-2.494c0-0.242,0.105-0.398,0.318-0.434c0.248-0.043,0.481,0.004,0.564,0.291
	C3.592,0.349,3.59,0.398,3.59,0.445c0.002,0.914,0,1.829,0,2.743c0,0.026-0.002,0.053,0.002,0.08c0.008,0.065,0.054,0.11,0.112,0.1
	c0.041-0.007,0.08-0.055,0.109-0.094C3.829,3.255,3.82,3.217,3.82,3.187c0-0.689,0.007-1.378-0.003-2.068
	C3.811,0.83,4.027,0.664,4.264,0.676c0.229,0.012,0.375,0.093,0.431,0.279C4.711,1.011,4.711,1.072,4.711,1.13
	c0.002,0.802,0.002,1.604,0.002,2.406c0,0.023-0.002,0.047,0,0.071C4.715,3.706,4.752,3.75,4.831,3.751
	c0.076,0.001,0.11-0.043,0.11-0.147c0-0.485-0.001-0.97,0-1.455C4.942,1.955,5.059,1.83,5.262,1.802
	c0.22-0.031,0.395,0.062,0.447,0.242c0.01,0.033,0.014,0.069,0.014,0.104c0,1.018,0.002,2.036-0.002,3.054
	c-0.002,0.426-0.115,0.83-0.279,1.217C5.286,6.785,5.1,7.137,4.926,7.495C4.877,7.596,4.795,7.637,4.682,7.637
	c-0.84-0.002-1.68-0.002-2.521,0c-0.101,0-0.174-0.039-0.23-0.121c-0.624-0.92-1.25-1.838-1.874-2.756
	c-0.092-0.135-0.075-0.25,0.054-0.348C0.315,4.261,0.543,4.246,0.777,4.32C1.034,4.401,1.22,4.573,1.368,4.792
	C1.43,4.883,1.491,4.976,1.552,5.068C1.558,5.067,1.564,5.065,1.57,5.063"/>
</svg>
