<?xml version="1.0" encoding="utf-8"?>
<!-- Generator: Adobe Illustrator 16.0.0, SVG Export Plug-In . SVG Version: 6.00 Build 0)  -->
<!DOCTYPE svg PUBLIC "-//W3C//DTD SVG 1.1//EN" "http://www.w3.org/Graphics/SVG/1.1/DTD/svg11.dtd">
<svg version="1.1" id="Layer_1" xmlns="http://www.w3.org/2000/svg" xmlns:xlink="http://www.w3.org/1999/xlink" x="0px" y="0px"
	 width="5.579px" height="7.568px" viewBox="0 0.069 5.579 7.568" enable-background="new 0 0.069 5.579 7.568"
	 xml:space="preserve">
<path fill="#4D565D" d="M-19.43,470.063v-0.102c0-1.354,0-2.705,0-4.058c-0.001-0.179,0.05-0.332,0.223-0.409
	c0.178-0.076,0.356-0.074,0.521,0.041c0.116,0.081,0.158,0.201,0.158,0.339c0,0.695,0,1.392,0,2.087c0,0.022,0,0.047,0,0.07
	c0.002,0.072,0.043,0.11,0.111,0.111c0.065,0.002,0.102-0.04,0.108-0.104c0.004-0.03,0.003-0.063,0.003-0.098
	c0.001-0.831,0-1.662,0.001-2.494c0-0.242,0.105-0.397,0.318-0.434c0.249-0.043,0.482,0.004,0.565,0.291
	c0.013,0.043,0.012,0.093,0.012,0.14c0.001,0.914,0,1.829,0,2.743c0,0.025-0.002,0.053,0.002,0.08
	c0.008,0.063,0.053,0.109,0.112,0.1c0.041-0.007,0.08-0.055,0.108-0.094c0.016-0.02,0.006-0.057,0.006-0.087
	c0-0.688,0.008-1.378-0.003-2.068c-0.005-0.289,0.21-0.455,0.447-0.441c0.229,0.012,0.375,0.093,0.431,0.277
	c0.017,0.057,0.018,0.117,0.018,0.176c0.001,0.803,0.001,1.604,0.001,2.405c0,0.023-0.001,0.048,0,0.071
	c0.003,0.099,0.039,0.145,0.118,0.145c0.075,0.002,0.109-0.043,0.109-0.146c0-0.485-0.001-0.971,0-1.455
	c0.001-0.193,0.118-0.318,0.321-0.348c0.22-0.03,0.395,0.063,0.447,0.242c0.01,0.032,0.014,0.068,0.014,0.104
	c0,1.02,0.002,2.036-0.002,3.054c-0.002,0.427-0.115,0.83-0.279,1.218c-0.155,0.365-0.342,0.719-0.516,1.075
	c-0.049,0.103-0.131,0.144-0.243,0.144c-0.84-0.002-1.681-0.002-2.521,0c-0.102,0-0.175-0.039-0.23-0.121
	c-0.624-0.92-1.25-1.838-1.874-2.756c-0.092-0.135-0.075-0.25,0.054-0.349c0.203-0.151,0.432-0.167,0.665-0.093
	c0.258,0.081,0.443,0.253,0.592,0.473c0.062,0.092,0.123,0.185,0.184,0.275C-19.442,470.067-19.436,470.065-19.43,470.063"/>
<g>
	<path fill="#4D565C" d="M0,0.069h3.78v0.117c0,0.472,0,0.945,0,1.417c0,0.208,0.06,0.266,0.27,0.266
		c0.465,0.001,0.93,0.001,1.396,0.001h0.133v5.768H0V0.069z M2.791,5.3c0.637,0,1.274,0,1.911,0c0.041,0,0.085,0.001,0.124-0.012
		C4.918,5.262,4.965,5.196,4.956,5.1C4.948,5.01,4.898,4.951,4.804,4.94C4.763,4.935,4.722,4.935,4.679,4.935
		c-1.26,0-2.52,0-3.779,0c-0.035,0-0.07-0.001-0.105,0.002c-0.107,0.011-0.18,0.085-0.181,0.181
		C0.612,5.211,0.691,5.289,0.796,5.299C0.827,5.302,0.859,5.3,0.892,5.3C1.525,5.3,2.157,5.3,2.791,5.3 M2.787,4.306
		c0.63,0,1.26,0,1.89-0.001c0.042,0,0.084,0,0.126-0.005c0.099-0.013,0.148-0.074,0.154-0.168c0.006-0.098-0.048-0.159-0.14-0.185
		C4.782,3.938,4.742,3.94,4.704,3.94c-1.273,0-2.549,0-3.822,0c-0.177,0-0.266,0.06-0.269,0.18C0.61,4.239,0.704,4.305,0.877,4.306
		C1.515,4.306,2.15,4.306,2.787,4.306 M2.781,6.289c0.658,0,1.316,0,1.974,0c0.126,0,0.203-0.068,0.204-0.175
		c0.001-0.109-0.075-0.182-0.197-0.182c-1.312-0.001-2.623-0.001-3.936,0c-0.127,0-0.217,0.08-0.213,0.181
		c0.005,0.109,0.087,0.176,0.216,0.176C1.48,6.289,2.13,6.289,2.781,6.289 M2.791,3.31c0.351,0,0.7,0,1.05,0
		c0.309,0,0.616,0.001,0.924,0c0.127-0.001,0.201-0.079,0.192-0.195c-0.009-0.11-0.081-0.165-0.226-0.165c-1.15,0-2.301,0-3.453,0
		c-0.154,0-0.31-0.008-0.463,0.004c-0.06,0.007-0.137,0.043-0.17,0.092c-0.086,0.12,0.01,0.264,0.172,0.265
		C1.476,3.311,2.133,3.31,2.791,3.31 M1.8,1.961c-0.324,0-0.65-0.001-0.976,0C0.697,1.962,0.61,2.037,0.613,2.142
		c0.003,0.105,0.089,0.179,0.216,0.179c0.645,0,1.287,0,1.931,0c0.126,0,0.214-0.073,0.216-0.178C2.98,2.04,2.89,1.962,2.765,1.961
		C2.445,1.96,2.122,1.961,1.8,1.961"/>
	<path fill="#4D565C" d="M4.152,1.493V0.11c0.46,0.462,0.926,0.928,1.379,1.384H4.152z"/>
</g>
</svg>
