<?xml version="1.0" encoding="utf-8"?>
<!-- Generator: Adobe Illustrator 16.0.0, SVG Export Plug-In . SVG Version: 6.00 Build 0)  -->
<!DOCTYPE svg PUBLIC "-//W3C//DTD SVG 1.1//EN" "http://www.w3.org/Graphics/SVG/1.1/DTD/svg11.dtd">
<svg version="1.1" id="Layer_1" xmlns="http://www.w3.org/2000/svg" xmlns:xlink="http://www.w3.org/1999/xlink" x="0px" y="0px"
	 width="7.547px" height="4.909px" viewBox="0 0 7.547 4.909" enable-background="new 0 0 7.547 4.909" xml:space="preserve">
<path fill="#4D565D" d="M-18.611,469.022v-0.102c0-1.353,0-2.705,0-4.057c-0.001-0.179,0.049-0.332,0.222-0.409
	c0.178-0.077,0.357-0.075,0.522,0.041c0.116,0.081,0.158,0.201,0.158,0.339c0,0.695,0,1.391,0,2.086c0,0.023,0,0.047,0,0.071
	c0.002,0.072,0.043,0.11,0.111,0.111c0.066,0.002,0.102-0.04,0.109-0.104c0.004-0.031,0.003-0.064,0.003-0.098
	c0.001-0.831,0-1.662,0.001-2.494c0-0.242,0.105-0.398,0.318-0.434c0.249-0.043,0.482,0.004,0.565,0.291
	c0.013,0.043,0.012,0.093,0.012,0.14c0.001,0.914,0,1.829,0,2.743c0,0.025-0.002,0.053,0.002,0.08
	c0.008,0.064,0.053,0.109,0.112,0.1c0.041-0.007,0.08-0.055,0.109-0.094c0.015-0.02,0.006-0.057,0.006-0.087
	c0-0.688,0.007-1.378-0.003-2.068c-0.005-0.289,0.21-0.455,0.447-0.442c0.229,0.012,0.375,0.093,0.431,0.278
	c0.016,0.056,0.017,0.117,0.017,0.175c0.001,0.803,0.001,1.604,0.001,2.406c0,0.023-0.001,0.047,0,0.071
	c0.003,0.099,0.039,0.144,0.118,0.144c0.076,0.002,0.11-0.043,0.11-0.146c0-0.485-0.001-0.971,0-1.455
	c0.001-0.194,0.118-0.319,0.321-0.348c0.22-0.03,0.395,0.063,0.447,0.242c0.01,0.033,0.014,0.069,0.014,0.104
	c0,1.019,0.002,2.036-0.002,3.054c-0.002,0.426-0.115,0.83-0.279,1.217c-0.156,0.366-0.342,0.719-0.516,1.076
	c-0.049,0.102-0.131,0.143-0.243,0.143c-0.84-0.002-1.681-0.002-2.521,0c-0.101,0-0.174-0.039-0.23-0.121
	c-0.624-0.92-1.25-1.838-1.874-2.756c-0.092-0.135-0.075-0.25,0.054-0.348c0.203-0.152,0.431-0.167,0.665-0.093
	c0.257,0.081,0.443,0.253,0.591,0.472c0.062,0.092,0.123,0.185,0.184,0.276C-18.624,469.026-18.617,469.024-18.611,469.022"/>
<path fill="#4D565D" d="M0.005,4.534c-0.034-0.383,0.107-0.83,0.438-0.947C0.448,2.8,0.676,2.094,1.229,1.509
	c0.321-0.339,0.855-0.665,1.186-0.745c0.18,0.359,0.361,0.72,0.542,1.08C2.963,1.843,2.97,1.841,2.976,1.839v-0.1
	c0-0.44,0-0.879,0.002-1.318c0-0.281,0.129-0.414,0.408-0.419C3.614,0,3.843,0,4.071,0.002c0.285,0.003,0.418,0.138,0.42,0.422
	c0,0.439,0,0.878,0,1.317v0.1c0.007,0.002,0.014,0.003,0.021,0.004c0.192-0.359,0.384-0.719,0.587-1.097
	C5.243,0.813,5.39,0.87,5.526,0.946c0.959,0.537,1.461,1.36,1.519,2.456c0.005,0.105,0.003,0.197,0.134,0.25
	c0.079,0.032,0.143,0.124,0.192,0.202C7.499,4.059,7.532,4.29,7.547,4.524C6.11,5.013,1.714,5.059,0.005,4.534"/>
</svg>
