<?xml version="1.0" encoding="utf-8"?>
<!-- Generator: Adobe Illustrator 16.0.0, SVG Export Plug-In . SVG Version: 6.00 Build 0)  -->
<!DOCTYPE svg PUBLIC "-//W3C//DTD SVG 1.1//EN" "http://www.w3.org/Graphics/SVG/1.1/DTD/svg11.dtd">
<svg version="1.1" id="Layer_1" xmlns="http://www.w3.org/2000/svg" xmlns:xlink="http://www.w3.org/1999/xlink" x="0px" y="0px"
	 width="6.448px" height="6.459px" viewBox="0 0 6.448 6.459" enable-background="new 0 0 6.448 6.459" xml:space="preserve">
<path fill="#4D565D" d="M-21.545,467.449v-0.102c0-1.353,0-2.705,0-4.057c-0.001-0.179,0.049-0.332,0.222-0.409
	c0.178-0.077,0.357-0.075,0.522,0.041c0.116,0.081,0.158,0.201,0.158,0.339c0,0.695,0,1.391,0,2.086c0,0.023,0,0.047,0,0.071
	c0.002,0.072,0.043,0.11,0.111,0.111c0.066,0.002,0.102-0.04,0.109-0.104c0.004-0.031,0.003-0.064,0.003-0.098
	c0.001-0.831,0-1.662,0.001-2.494c0-0.242,0.105-0.398,0.318-0.434c0.249-0.043,0.482,0.004,0.565,0.291
	c0.013,0.043,0.012,0.093,0.012,0.14c0.001,0.914,0,1.829,0,2.743c0,0.025-0.002,0.053,0.002,0.08
	c0.008,0.064,0.053,0.109,0.112,0.1c0.041-0.007,0.08-0.055,0.109-0.094c0.015-0.02,0.006-0.057,0.006-0.087
	c0-0.688,0.007-1.378-0.003-2.068c-0.005-0.289,0.21-0.455,0.447-0.442c0.229,0.012,0.375,0.093,0.431,0.278
	c0.016,0.056,0.017,0.117,0.017,0.175c0.001,0.803,0.001,1.604,0.001,2.406c0,0.023-0.001,0.047,0,0.071
	c0.003,0.099,0.039,0.144,0.118,0.144c0.076,0.002,0.11-0.043,0.11-0.146c0-0.485-0.001-0.971,0-1.455
	c0.001-0.194,0.118-0.319,0.321-0.348c0.22-0.03,0.395,0.063,0.447,0.242c0.01,0.033,0.014,0.069,0.014,0.104
	c0,1.019,0.002,2.036-0.002,3.054c-0.002,0.426-0.115,0.83-0.279,1.217c-0.156,0.366-0.342,0.719-0.516,1.076
	c-0.049,0.102-0.131,0.143-0.243,0.143c-0.84-0.002-1.681-0.002-2.521,0c-0.101,0-0.174-0.039-0.23-0.121
	c-0.624-0.92-1.25-1.838-1.874-2.756c-0.092-0.135-0.075-0.25,0.054-0.348c0.203-0.152,0.431-0.167,0.665-0.093
	c0.257,0.081,0.443,0.253,0.591,0.472c0.062,0.092,0.123,0.185,0.184,0.276C-21.558,467.453-21.551,467.451-21.545,467.449"/>
<path fill="#4D565D" d="M1.893,3.878C1.356,3.859,0.897,3.66,0.526,3.271c-0.369-0.389-0.545-0.854-0.525-1.39
	c0.006-0.138,0.079-0.232,0.205-0.278c0.122-0.044,0.236-0.021,0.331,0.074c0.262,0.262,0.523,0.524,0.785,0.788
	c0.193,0.189,0.428,0.191,0.621,0c0.17-0.168,0.34-0.336,0.509-0.508c0.2-0.203,0.198-0.435-0.005-0.638
	C2.2,1.07,1.952,0.821,1.702,0.574C1.598,0.473,1.542,0.357,1.604,0.215C1.668,0.069,1.784,0.002,1.942,0
	c0.912-0.009,1.74,0.684,1.896,1.582c0.058,0.331,0.045,0.656-0.069,0.972C3.743,2.621,3.776,2.65,3.813,2.687
	c0.785,0.785,1.568,1.57,2.354,2.355c0.12,0.119,0.223,0.25,0.262,0.42C6.509,5.806,6.33,6.181,5.998,6.359
	C5.663,6.537,5.342,6.48,5.044,6.181c-0.647-0.646-1.293-1.293-1.94-1.939c-0.136-0.137-0.274-0.27-0.406-0.41
	C2.639,3.769,2.589,3.763,2.509,3.789C2.311,3.857,2.104,3.884,1.893,3.878 M5.221,5.572c0.002,0.203,0.157,0.365,0.354,0.367
	c0.19,0.002,0.37-0.174,0.366-0.361C5.938,5.375,5.778,5.218,5.578,5.218C5.377,5.22,5.22,5.375,5.221,5.572"/>
</svg>
