<?xml version="1.0" encoding="utf-8"?>
<!-- Generator: Adobe Illustrator 16.0.0, SVG Export Plug-In . SVG Version: 6.00 Build 0)  -->
<!DOCTYPE svg PUBLIC "-//W3C//DTD SVG 1.1//EN" "http://www.w3.org/Graphics/SVG/1.1/DTD/svg11.dtd">
<svg version="1.1" id="Layer_1" xmlns="http://www.w3.org/2000/svg" xmlns:xlink="http://www.w3.org/1999/xlink" x="0px" y="0px"
	 width="752.044px" height="100.566px" viewBox="0 0 752.044 100.566" enable-background="new 0 0 752.044 100.566"
	 xml:space="preserve">
<g id="XMLID_5220_">
	<ellipse id="XMLID_5338_" fill="#FDCD3A" cx="53.811" cy="34.211" rx="52.33" ry="34.085"/>
	<g id="XMLID_5223_">
		<path id="XMLID_5236_" d="M106.606,35.225c0-0.168,0-0.379,0-0.549s0-0.379,0-0.549v-0.042l0,0
			c-0.169-7.223-3.802-13.938-9.799-19.43c-0.042-0.042-0.972-0.887-0.972-0.887l0,0c-4.183-3.59-9.42-6.632-15.417-8.913
			l-0.168-0.21L80.166,4.73C72.269,1.732,63.103,0,53.303,0C39.28,0,26.018,3.505,16.008,9.883C5.702,16.43,0,25.258,0,34.634
			C0,53.726,23.906,69.27,53.303,69.27C82.404,69.312,106.141,54.063,106.606,35.225L106.606,35.225L106.606,35.225z M14.233,56.429
			c0.254-0.338,1.015-1.057,2.872-1.858c3.464,3.802,7.899,7.012,12.967,9.461c-0.084,0.086-0.168,0.128-0.253,0.212
			C23.906,62.3,18.626,59.639,14.233,56.429z M94.695,14.698c-0.719,0.466-1.9,1.1-3.76,1.732
			c-3.125-3.886-7.223-7.265-12.036-9.926c0.38-0.126,0.675-0.254,0.929-0.338C85.656,8.363,90.683,11.277,94.695,14.698z
			 M52.711,21.118v12.925H37c0.042-4.815,0.592-9.334,1.521-13.475C42.702,20.865,47.39,21.076,52.711,21.118z M53.895,34.085
			V21.161c1.014,0,2.027,0,2.999,0c4.182,0,7.897-0.084,11.277-0.253c0.887,4.012,1.393,8.488,1.437,13.177H53.895z M37,35.225
			h15.711v13.98c-5.363-0.042-9.967,0.084-13.979,0.338C37.675,45.236,37.042,40.378,37,35.225z M54.317,49.248
			c-0.127,0-0.297,0-0.422,0V35.225h15.712c-0.044,5.196-0.677,10.095-1.731,14.445C63.904,49.459,59.427,49.29,54.317,49.248z
			 M67.875,19.767c-4.056,0.169-8.701,0.254-13.98,0.211V8.531c0.717,0,1.436,0,2.154,0c2.702,0,5.152-0.042,7.307-0.126
			C65.256,11.446,66.818,15.332,67.875,19.767z M52.67,8.531h0.041v11.446c-5.236-0.084-9.84-0.253-13.938-0.506
			c1.1-4.393,2.661-8.194,4.563-11.193C46.039,8.405,49.122,8.489,52.67,8.531z M42.11,8.236c-1.857,3.041-3.379,6.843-4.436,11.151
			c-4.478-0.296-8.32-0.718-11.488-1.141c2.197-4.141,5.195-7.73,8.786-10.519C36.873,7.898,39.238,8.067,42.11,8.236z
			 M37.38,20.527c-0.929,4.14-1.479,8.7-1.521,13.517H22.09c0.085-5.279,1.352-10.307,3.464-14.699
			C28.848,19.81,32.776,20.231,37.38,20.527z M35.859,35.225c0.042,5.153,0.677,10.011,1.732,14.403
			c-4.646,0.295-8.447,0.761-11.531,1.31c-2.45-4.646-3.886-10.01-3.971-15.713H35.859L35.859,35.225z M39.027,50.685
			c3.929-0.211,8.447-0.338,13.685-0.338v10.939c-3.547-0.042-6.546,0.042-9.081,0.169C41.73,58.583,40.167,54.95,39.027,50.685z
			 M53.895,50.389c0.125,0,0.253,0,0.422,0c4.983,0.042,9.376,0.21,13.264,0.422c-1.143,4.267-2.746,7.94-4.689,10.771
			c-2.491-0.126-5.364-0.211-8.701-0.295c-0.126,0-0.21,0-0.295,0V50.389z M69.016,49.755c1.098-4.394,1.731-9.333,1.773-14.53
			h13.769c-0.083,5.661-1.52,10.982-3.928,15.628C77.421,50.431,73.577,50.051,69.016,49.755z M70.747,34.085
			c-0.042-4.688-0.55-9.166-1.438-13.221c4.73-0.254,8.658-0.634,11.911-1.099c2.027,4.308,3.21,9.166,3.294,14.318L70.747,34.085
			L70.747,34.085z M69.058,19.725c-1.056-4.393-2.577-8.236-4.435-11.362c2.871-0.126,5.278-0.296,7.223-0.549
			c3.632,2.872,6.673,6.547,8.868,10.813C77.505,19.091,73.662,19.472,69.058,19.725z M62.596,7.307
			c-2.534,0.084-5.407,0.126-8.744,0.084V1.478c0.38,0,0.718,0,1.1,0C57.78,2.069,60.399,4.139,62.596,7.307z M52.711,1.478v5.914
			H52.67c-3.252-0.042-6.125-0.126-8.574-0.211c2.196-3.041,4.73-5.068,7.518-5.66C51.994,1.478,52.374,1.478,52.711,1.478z
			 M44.137,62.172c2.408-0.084,5.28-0.168,8.617-0.125v5.785c-0.38,0-0.719,0-1.1,0C48.869,67.242,46.292,65.214,44.137,62.172z
			 M53.895,67.832v-5.785c0.084,0,0.21,0,0.295,0c3.126,0.041,5.872,0.125,8.194,0.253c-2.153,2.998-4.688,4.942-7.433,5.49
			C54.612,67.832,54.274,67.832,53.895,67.832z M26.651,51.994c3-0.508,6.673-0.931,11.235-1.226
			c1.098,4.182,2.661,7.814,4.519,10.771c-2.744,0.169-4.897,0.38-6.631,0.677C32.1,59.512,28.975,56.049,26.651,51.994z
			 M68.719,50.896c4.436,0.296,8.194,0.676,11.278,1.1c-2.365,4.097-5.491,7.645-9.208,10.306c-1.773-0.253-3.929-0.465-6.631-0.634
			C66.017,58.751,67.58,55.077,68.719,50.896z M63.904,7.265c-1.563-2.365-3.337-4.224-5.236-5.449
			c4.308,0.804,8.32,2.534,11.868,5.025C68.678,7.011,66.48,7.138,63.904,7.265z M42.828,7.096
			c-2.534-0.126-4.688-0.254-6.463-0.422c3.464-2.407,7.393-4.097,11.614-4.857C46.08,2.999,44.349,4.815,42.828,7.096z
			 M42.828,62.258c1.521,2.28,3.252,4.056,5.151,5.235c-4.096-0.76-7.938-2.362-11.36-4.688
			C38.267,62.596,40.294,62.384,42.828,62.258z M63.693,62.384c2.492,0.127,4.521,0.338,6.167,0.507
			c-3.378,2.24-7.138,3.844-11.192,4.604C60.483,66.313,62.173,64.58,63.693,62.384z M81.898,18.5
			c-2.112-4.225-5.026-7.898-8.489-10.855c1.604-0.211,2.913-0.464,3.886-0.675c4.982,2.577,9.25,5.956,12.46,9.841
			C87.811,17.401,85.276,17.993,81.898,18.5z M72.225,6.673c-2.111-1.647-4.434-2.999-6.884-4.054
			c3.675,0.845,7.181,2.026,10.39,3.547C74.76,6.336,73.619,6.504,72.225,6.673z M34.634,6.504C33.241,6.336,32.1,6.208,31.171,6.04
			c3.168-1.479,6.547-2.619,10.179-3.421C38.942,3.632,36.704,4.941,34.634,6.504z M33.325,7.518
			c-3.422,2.872-6.294,6.462-8.404,10.561c-3.295-0.466-5.871-1.015-7.898-1.479c3.252-3.843,7.476-7.138,12.417-9.714
			C30.411,7.096,31.72,7.307,33.325,7.518z M24.371,19.175c-2.111,4.477-3.336,9.545-3.421,14.91H10.095
			c0.126-5.998,2.323-11.615,6.082-16.474C18.247,18.12,20.95,18.669,24.371,19.175z M20.95,35.225
			c0.084,5.744,1.521,11.151,3.928,15.923c-3.337,0.634-5.702,1.354-7.477,2.07c-4.477-5.153-7.18-11.319-7.307-17.951H20.95V35.225
			z M25.469,52.204c2.239,4.014,5.237,7.519,8.785,10.307c-1.268,0.253-2.196,0.55-2.914,0.845
			c-5.153-2.365-9.587-5.491-13.093-9.25C19.894,53.472,22.217,52.796,25.469,52.204z M35.014,63.103
			c1.943,1.437,4.055,2.66,6.293,3.59c-3.167-0.718-6.208-1.688-9.039-2.914C32.945,63.524,33.832,63.313,35.014,63.103z
			 M71.55,63.145c1.225,0.169,2.196,0.38,2.956,0.549c-2.873,1.269-5.956,2.281-9.208,2.999
			C67.536,65.721,69.607,64.538,71.55,63.145z M72.352,62.511c3.59-2.788,6.59-6.335,8.87-10.391
			c3.253,0.465,5.744,0.972,7.646,1.479c-3.507,3.887-8.023,7.181-13.305,9.63C74.76,62.976,73.703,62.764,72.352,62.511z
			 M81.813,51.021c2.407-4.729,3.802-10.094,3.886-15.796h10.813c-0.127,6.378-2.618,12.334-6.801,17.36
			C87.769,52.078,85.191,51.529,81.813,51.021z M85.656,34.085c-0.085-5.195-1.226-10.096-3.253-14.487
			c3.465-0.549,6.125-1.183,8.152-1.816c3.675,4.815,5.828,10.349,5.955,16.304H85.656z M77.505,5.744
			c-0.929-0.466-1.9-0.93-2.914-1.353c1.225,0.338,2.45,0.761,3.633,1.184C78.013,5.617,77.8,5.702,77.505,5.744z M29.271,5.66
			c-0.254-0.084-0.507-0.126-0.676-0.169c1.141-0.38,2.282-0.761,3.464-1.099C31.086,4.772,30.156,5.237,29.271,5.66z
			 M30.876,64.412c0.379,0.168,0.76,0.337,1.14,0.507c-0.465-0.128-0.887-0.254-1.352-0.381
			C30.749,64.453,30.791,64.412,30.876,64.412z M76.196,64.2c0.126,0.042,0.211,0.085,0.295,0.127
			c-0.634,0.211-1.267,0.38-1.899,0.592C75.141,64.665,75.688,64.453,76.196,64.2z M77.421,64.031
			c-0.127-0.085-0.253-0.169-0.422-0.211c5.151-2.533,9.63-5.914,13.05-9.841c2.155,0.591,3.295,1.141,3.801,1.352
			C89.374,58.879,83.799,61.877,77.421,64.031z M105.127,34.085h-7.476c-0.128-6.082-2.28-11.742-5.956-16.685
			c1.9-0.675,3.125-1.352,3.929-1.899C101.452,20.78,104.958,27.158,105.127,34.085z M16.768,11.108
			c3.126-1.984,6.547-3.675,10.222-5.067c0.212,0.126,0.507,0.253,0.846,0.38c-4.815,2.619-8.913,5.998-12.038,9.841
			c-2.069-0.549-3.379-1.014-4.183-1.352C13.178,13.6,14.91,12.333,16.768,11.108z M10.644,15.797
			c0.675,0.295,2.028,0.845,4.351,1.478c-3.718,4.942-5.914,10.687-6.04,16.769H1.478C1.647,27.455,4.857,21.161,10.644,15.797z
			 M1.478,35.225h7.477c0.126,6.801,2.83,13.136,7.349,18.458c-1.774,0.845-2.619,1.605-2.999,2.07
			C6.082,50.135,1.689,42.997,1.478,35.225z M94.821,54.527c-0.169-0.126-1.225-0.76-3.928-1.563
			c4.183-5.153,6.631-11.235,6.759-17.697h7.476C104.958,42.448,101.156,49.122,94.821,54.527z"/>
		<g id="XMLID_5229_">
			<path id="XMLID_5235_" fill="#CE2027" d="M13.136,56.514c0,0,4.772,4.52,5.279,9.926l0.38,3.971
				c0.084,0.803,0.76,1.436,1.563,1.436h65.171c0.932,0,1.731-0.719,1.817-1.646c0.169-1.647,0.548-4.225,1.52-6.167
				c1.563-3.085,4.563-7.097,4.563-7.097S12.882,56.767,13.136,56.514z"/>
			<path id="XMLID_5231_" d="M85.488,72.437H20.316c-1.141,0-2.069-0.845-2.153-1.983l-0.381-3.972
				c-0.422-4.772-4.435-8.912-5.025-9.461c-0.126-0.043-0.168-0.17-0.211-0.254l-0.169-0.381l0.718-0.717l0.295,0.253
				c3.506,0.169,53.473,0.296,79.955,0.338h1.225l-0.719,0.972c-0.042,0.042-2.998,3.971-4.518,7.012
				c-0.931,1.815-1.312,4.267-1.479,5.955C87.769,71.465,86.713,72.437,85.488,72.437z M14.614,57.188
				c1.479,1.69,4.056,5.195,4.394,9.167l0.38,3.969c0.042,0.508,0.464,0.845,0.929,0.845h65.172c0.634,0,1.142-0.464,1.184-1.097
				c0.168-1.817,0.59-4.394,1.604-6.379c1.099-2.195,2.914-4.813,3.929-6.208c-4.604,0-21.752-0.044-38.859-0.085
				c-11.657-0.043-20.907-0.085-27.581-0.127c-3.759-0.042-6.885-0.042-9.123-0.085C15.754,57.188,15.121,57.188,14.614,57.188z"/>
		</g>
		<path id="XMLID_5228_" d="M85.234,79.489H21.287c-1.057,0-1.9-0.845-1.9-1.898v-1.48c0-1.054,0.844-1.897,1.9-1.897h63.946
			c1.058,0,1.9,0.845,1.9,1.897v1.479C87.135,78.645,86.291,79.489,85.234,79.489z"/>
		<path id="XMLID_5227_" d="M85.234,86.839H21.287c-1.057,0-1.9-0.845-1.9-1.899V83.46c0-1.058,0.844-1.898,1.9-1.898h63.946
			c1.058,0,1.9,0.842,1.9,1.898v1.479C87.135,85.994,86.291,86.839,85.234,86.839z"/>
		<path id="XMLID_5226_" d="M85.234,94.188H21.287c-1.057,0-1.9-0.845-1.9-1.898V90.81c0-1.057,0.844-1.897,1.9-1.897h63.946
			c1.058,0,1.9,0.842,1.9,1.897v1.479C87.135,93.344,86.291,94.188,85.234,94.188z"/>
		<g id="XMLID_5224_">
			<path id="XMLID_5225_" d="M59.005,100.567c-1.395,0-3.125,0-5.279-0.042c-5.025-0.042-10.729-0.171-11.615-0.255
				c-1.9-0.209-4.266-4.223-5.194-5.954l1.731-0.931c1.352,2.491,3.083,4.773,3.717,4.941c1.395,0.171,18.881,0.381,21.5,0.171
				c0.761-0.975,3.295-4.521,3.59-5.154c0,0-0.042,0.129-0.042,0.254h1.941c0,1.1-4.308,6.506-4.35,6.548
				C64.707,100.441,64.538,100.567,59.005,100.567z"/>
		</g>
	</g>
	<g id="XMLID_5222_">
		<path id="XMLID_41_" d="M36.747,68.212c-0.55-0.295-1.016-0.759-1.311-1.31c-0.296-0.59-0.464-1.267-0.464-2.026
			c0-0.761,0.168-1.437,0.464-2.027c0.295-0.591,0.76-1.014,1.311-1.31c0.549-0.295,1.225-0.466,1.941-0.466
			c0.973,0,1.732,0.213,2.365,0.678v1.521c-0.295-0.254-0.633-0.465-0.971-0.55c-0.38-0.126-0.804-0.168-1.268-0.168
			c-0.718,0-1.268,0.21-1.689,0.633s-0.633,1.015-0.633,1.732s0.211,1.31,0.633,1.729c0.422,0.423,0.972,0.637,1.689,0.637
			c0.506,0,0.93-0.042,1.31-0.171c0.38-0.127,0.719-0.337,1.056-0.591v1.521c-0.591,0.464-1.437,0.717-2.45,0.717
			C37.972,68.677,37.295,68.509,36.747,68.212z"/>
		<path id="XMLID_43_" d="M45.447,61.201h4.773v1.31h-3.295V64.2h2.408v1.268h-2.408v1.688h3.295v1.312h-4.773V61.201z"/>
		<path id="XMLID_45_" d="M54.402,61.201h2.914c0.761,0,1.395,0.211,1.858,0.634s0.717,1.056,0.717,1.815
			c0,0.803-0.21,1.395-0.675,1.816S58.117,66.1,57.358,66.1h-1.394v2.366h-1.479V61.2L54.402,61.201L54.402,61.201z M57.062,64.791
			c0.845,0,1.269-0.379,1.269-1.141c0-0.423-0.127-0.719-0.337-0.888c-0.213-0.168-0.551-0.253-0.931-0.253H55.88v2.28
			L57.062,64.791L57.062,64.791z"/>
		<path id="XMLID_48_" d="M66.565,61.201h1.479l2.745,7.308h-1.521l-0.591-1.605h-2.745l-0.592,1.605h-1.563L66.565,61.201z
			 M68.255,65.679l-0.971-2.788l-0.973,2.788H68.255z"/>
	</g>
	<path id="XMLID_5221_" d="M25.215,51.571c0,0-1.14-2.195,0.633-2.365c1.774-0.168,7.012,0.084,7.012,0.084l0.253-7.813
		l-1.478-0.254l8.067-3.083l7.729,2.999l-0.634,0.887l0.084,3.76L49.88,45.7v-8.363l4.013-0.084l0.168-5.152h6.208l0.17,14.445
		h4.394c0,0,1.646-6.504,1.942-9.292c0.338-2.787,0.507-26.736,0.507-26.736l3.252,0.042c0,0,0.086,23.823,0.339,27.497
		c0.253,3.675,2.11,11.15,2.11,11.15s7.266,1.225,7.604,1.731c0.339,0.507-14.994-1.141-17.612-1.056
		c-2.618,0.084-11.996-0.085-11.996-0.085s-13.136,0.169-16.558,0.508C31.001,50.6,25.215,51.571,25.215,51.571z"/>
</g>
<g>
	<path fill="#FFFFFF" d="M149.494,60.02l4.407,1.396c-0.676,2.457-1.8,4.282-3.371,5.475c-1.571,1.193-3.565,1.789-5.98,1.789
		c-2.99,0-5.447-1.021-7.371-3.063c-1.925-2.042-2.888-4.835-2.888-8.377c0-3.747,0.968-6.657,2.902-8.73
		c1.936-2.073,4.479-3.11,7.633-3.11c2.753,0,4.99,0.814,6.71,2.442c1.023,0.962,1.792,2.344,2.304,4.146l-4.499,1.075
		c-0.267-1.167-0.822-2.088-1.666-2.764c-0.845-0.676-1.871-1.014-3.079-1.014c-1.669,0-3.023,0.599-4.063,1.797
		c-1.039,1.197-1.559,3.137-1.559,5.819c0,2.847,0.512,4.874,1.536,6.081c1.023,1.208,2.354,1.813,3.992,1.813
		c1.208,0,2.247-0.384,3.117-1.152C148.49,62.875,149.115,61.668,149.494,60.02z"/>
	<path fill="#FFFFFF" d="M156.773,59.911c0-1.433,0.354-2.819,1.06-4.161c0.707-1.342,1.707-2.365,3.003-3.071
		c1.295-0.706,2.741-1.06,4.338-1.06c2.467,0,4.489,0.801,6.065,2.402c1.577,1.604,2.365,3.627,2.365,6.074
		c0,2.467-0.796,4.513-2.388,6.135c-1.593,1.623-3.597,2.434-6.013,2.434c-1.494,0-2.92-0.338-4.276-1.013
		c-1.356-0.676-2.388-1.667-3.095-2.972C157.126,63.374,156.773,61.785,156.773,59.911z M161.196,60.142
		c0,1.618,0.384,2.856,1.152,3.716c0.768,0.86,1.714,1.29,2.841,1.29c1.126,0,2.07-0.43,2.833-1.29
		c0.763-0.859,1.144-2.108,1.144-3.746c0-1.598-0.381-2.826-1.144-3.686c-0.763-0.86-1.707-1.29-2.833-1.29
		c-1.127,0-2.073,0.43-2.841,1.29C161.579,57.285,161.196,58.525,161.196,60.142z"/>
	<path fill="#FFFFFF" d="M191.817,68.296h-4.315v-8.323c0-1.761-0.092-2.899-0.276-3.416c-0.185-0.518-0.483-0.92-0.898-1.206
		c-0.414-0.286-0.914-0.431-1.497-0.431c-0.747,0-1.418,0.205-2.012,0.615c-0.594,0.409-1.001,0.951-1.221,1.627
		c-0.221,0.676-0.33,1.926-0.33,3.748v7.386h-4.315V51.988h4.008v2.396c1.423-1.842,3.215-2.764,5.375-2.764
		c0.952,0,1.822,0.172,2.61,0.514c0.788,0.344,1.385,0.781,1.789,1.313s0.686,1.136,0.845,1.812
		c0.158,0.676,0.238,1.644,0.238,2.902V68.296z"/>
	<path fill="#FFFFFF" d="M194.673,63.643l4.33-0.66c0.185,0.84,0.558,1.477,1.121,1.912s1.352,0.652,2.365,0.652
		c1.115,0,1.955-0.204,2.519-0.614c0.378-0.286,0.567-0.67,0.567-1.151c0-0.328-0.102-0.6-0.307-0.814
		c-0.215-0.204-0.696-0.394-1.443-0.568c-3.481-0.768-5.688-1.469-6.619-2.104c-1.289-0.88-1.935-2.104-1.935-3.67
		c0-1.412,0.558-2.6,1.674-3.563s2.846-1.443,5.19-1.443c2.231,0,3.891,0.363,4.976,1.09s1.832,1.803,2.242,3.225l-4.069,0.753
		c-0.175-0.635-0.505-1.121-0.991-1.459s-1.18-0.507-2.08-0.507c-1.137,0-1.95,0.159-2.442,0.477
		c-0.327,0.225-0.491,0.517-0.491,0.875c0,0.307,0.144,0.568,0.431,0.783c0.389,0.287,1.732,0.691,4.03,1.213
		c2.299,0.522,3.903,1.162,4.814,1.92c0.9,0.768,1.352,1.838,1.352,3.209c0,1.495-0.625,2.78-1.874,3.854
		c-1.249,1.075-3.097,1.612-5.543,1.612c-2.222,0-3.98-0.45-5.275-1.351C195.919,66.412,195.073,65.189,194.673,63.643z"/>
	<path fill="#FFFFFF" d="M212.685,59.911c0-1.433,0.354-2.819,1.06-4.161c0.707-1.342,1.707-2.365,3.003-3.071
		c1.295-0.706,2.741-1.06,4.338-1.06c2.467,0,4.489,0.801,6.065,2.402c1.577,1.604,2.365,3.627,2.365,6.074
		c0,2.467-0.796,4.513-2.388,6.135c-1.593,1.623-3.597,2.434-6.013,2.434c-1.494,0-2.92-0.338-4.276-1.013
		c-1.356-0.676-2.388-1.667-3.095-2.972C213.038,63.374,212.685,61.785,212.685,59.911z M217.108,60.142
		c0,1.618,0.384,2.856,1.152,3.716c0.768,0.86,1.714,1.29,2.841,1.29c1.126,0,2.07-0.43,2.833-1.29
		c0.763-0.859,1.144-2.108,1.144-3.746c0-1.598-0.381-2.826-1.144-3.686c-0.763-0.86-1.707-1.29-2.833-1.29
		c-1.127,0-2.073,0.43-2.841,1.29C217.491,57.285,217.108,58.525,217.108,60.142z"/>
	<path fill="#FFFFFF" d="M232.895,68.296V45.784h4.314v22.512H232.895z"/>
	<path fill="#FFFFFF" d="M241.632,49.777v-3.993h4.314v3.993H241.632z M241.632,68.296V51.988h4.314v16.309H241.632z"/>
	<path fill="#FFFFFF" d="M265.327,68.296h-4.009v-2.396c-0.665,0.932-1.451,1.625-2.356,2.081c-0.906,0.455-1.82,0.683-2.741,0.683
		c-1.874,0-3.479-0.755-4.814-2.265s-2.004-3.616-2.004-6.319c0-2.764,0.649-4.865,1.95-6.304c1.3-1.438,2.943-2.157,4.93-2.157
		c1.821,0,3.398,0.758,4.729,2.272v-8.108h4.315V68.296z M253.81,59.789c0,1.74,0.24,2.999,0.722,3.777
		c0.696,1.126,1.669,1.688,2.918,1.688c0.992,0,1.837-0.422,2.533-1.267c0.696-0.844,1.045-2.105,1.045-3.785
		c0-1.873-0.338-3.223-1.014-4.047c-0.676-0.823-1.541-1.236-2.596-1.236c-1.023,0-1.881,0.408-2.572,1.222
		C254.156,56.955,253.81,58.171,253.81,59.789z"/>
	<path fill="#FFFFFF" d="M272.806,56.963l-3.916-0.707c0.44-1.576,1.197-2.742,2.272-3.5s2.672-1.137,4.791-1.137
		c1.925,0,3.358,0.228,4.3,0.684c0.942,0.455,1.605,1.033,1.989,1.734s0.575,1.989,0.575,3.863l-0.046,5.036
		c0,1.434,0.069,2.49,0.207,3.171c0.139,0.682,0.397,1.41,0.776,2.188h-4.27c-0.112-0.286-0.251-0.712-0.414-1.274
		c-0.072-0.256-0.123-0.425-0.154-0.507c-0.737,0.717-1.525,1.254-2.364,1.612c-0.84,0.358-1.735,0.537-2.688,0.537
		c-1.68,0-3.002-0.455-3.97-1.366s-1.451-2.063-1.451-3.455c0-0.921,0.22-1.743,0.66-2.465s1.057-1.274,1.851-1.659
		c0.793-0.383,1.938-0.719,3.432-1.006c2.018-0.378,3.415-0.73,4.192-1.059v-0.43c0-0.83-0.205-1.421-0.614-1.774
		c-0.409-0.353-1.182-0.53-2.318-0.53c-0.768,0-1.367,0.152-1.797,0.453C273.42,55.676,273.072,56.205,272.806,56.963z
		 M278.579,60.465c-0.553,0.184-1.428,0.404-2.626,0.66c-1.197,0.256-1.98,0.506-2.35,0.752c-0.563,0.399-0.844,0.906-0.844,1.521
		c0,0.604,0.225,1.126,0.675,1.566c0.451,0.44,1.024,0.66,1.721,0.66c0.777,0,1.52-0.256,2.227-0.768
		c0.521-0.39,0.865-0.865,1.028-1.429c0.113-0.368,0.169-1.069,0.169-2.104V60.465z"/>
	<path fill="#FFFFFF" d="M294.55,51.988v3.44h-2.949V62c0,1.33,0.028,2.106,0.085,2.326c0.056,0.221,0.185,0.402,0.384,0.545
		c0.199,0.144,0.442,0.216,0.729,0.216c0.399,0,0.978-0.139,1.735-0.415l0.368,3.348c-1.003,0.43-2.14,0.645-3.409,0.645
		c-0.777,0-1.479-0.13-2.104-0.392c-0.625-0.261-1.083-0.599-1.374-1.013c-0.292-0.415-0.494-0.976-0.606-1.682
		c-0.093-0.502-0.139-1.516-0.139-3.041v-7.109h-1.981v-3.44h1.981v-3.24l4.33-2.519v5.758H294.55z"/>
	<path fill="#FFFFFF" d="M306.989,63.106l4.3,0.722c-0.553,1.577-1.426,2.777-2.618,3.602s-2.685,1.235-4.477,1.235
		c-2.836,0-4.935-0.926-6.296-2.779c-1.075-1.484-1.612-3.357-1.612-5.62c0-2.702,0.706-4.819,2.119-6.351
		c1.413-1.529,3.199-2.295,5.359-2.295c2.427,0,4.341,0.801,5.743,2.402c1.402,1.604,2.073,4.058,2.012,7.364h-10.811
		c0.03,1.28,0.379,2.275,1.044,2.986c0.665,0.712,1.495,1.067,2.488,1.067c0.675,0,1.243-0.185,1.704-0.553
		S306.753,63.925,306.989,63.106z M307.235,58.744c-0.031-1.248-0.354-2.198-0.968-2.849c-0.614-0.649-1.361-0.976-2.242-0.976
		c-0.941,0-1.72,0.344-2.334,1.029s-0.916,1.617-0.906,2.795H307.235z"/>
	<path fill="#FFFFFF" d="M329.992,68.296h-4.009v-2.396c-0.665,0.932-1.451,1.625-2.356,2.081c-0.906,0.455-1.82,0.683-2.741,0.683
		c-1.874,0-3.479-0.755-4.814-2.265s-2.004-3.616-2.004-6.319c0-2.764,0.649-4.865,1.95-6.304c1.3-1.438,2.943-2.157,4.93-2.157
		c1.821,0,3.398,0.758,4.729,2.272v-8.108h4.315V68.296z M318.475,59.789c0,1.74,0.24,2.999,0.722,3.777
		c0.696,1.126,1.669,1.688,2.918,1.688c0.992,0,1.837-0.422,2.533-1.267c0.696-0.844,1.045-2.105,1.045-3.785
		c0-1.873-0.338-3.223-1.014-4.047c-0.676-0.823-1.541-1.236-2.596-1.236c-1.023,0-1.881,0.408-2.572,1.222
		C318.821,56.955,318.475,58.171,318.475,59.789z"/>
	<path fill="#FFFFFF" d="M343.014,68.296V45.784h16.692v3.808H347.56v4.99h11.302v3.793H347.56v6.128h12.576v3.793H343.014z"/>
	<path fill="#FFFFFF" d="M363.961,68.296V45.784h4.314v22.512H363.961z"/>
	<path fill="#FFFFFF" d="M382.142,63.106l4.3,0.722c-0.553,1.577-1.426,2.777-2.618,3.602s-2.685,1.235-4.477,1.235
		c-2.836,0-4.935-0.926-6.296-2.779c-1.075-1.484-1.612-3.357-1.612-5.62c0-2.702,0.706-4.819,2.119-6.351
		c1.413-1.529,3.199-2.295,5.359-2.295c2.427,0,4.341,0.801,5.743,2.402c1.402,1.604,2.073,4.058,2.012,7.364h-10.811
		c0.03,1.28,0.379,2.275,1.044,2.986c0.665,0.712,1.495,1.067,2.488,1.067c0.675,0,1.243-0.185,1.704-0.553
		S381.906,63.925,382.142,63.106z M382.388,58.744c-0.031-1.248-0.354-2.198-0.968-2.849c-0.614-0.649-1.361-0.976-2.242-0.976
		c-0.941,0-1.72,0.344-2.334,1.029s-0.916,1.617-0.906,2.795H382.388z"/>
	<path fill="#FFFFFF" d="M404.409,56.81l-4.254,0.768c-0.144-0.85-0.469-1.489-0.976-1.919c-0.506-0.431-1.164-0.646-1.973-0.646
		c-1.075,0-1.933,0.371-2.572,1.113c-0.64,0.743-0.96,1.983-0.96,3.724c0,1.936,0.325,3.302,0.976,4.101
		c0.649,0.799,1.522,1.197,2.618,1.197c0.818,0,1.489-0.232,2.012-0.698c0.521-0.466,0.891-1.268,1.105-2.403l4.238,0.722
		c-0.44,1.945-1.285,3.414-2.534,4.407s-2.923,1.489-5.021,1.489c-2.385,0-4.287-0.752-5.704-2.257
		c-1.419-1.505-2.127-3.589-2.127-6.25c0-2.692,0.711-4.788,2.134-6.288s3.348-2.25,5.774-2.25c1.986,0,3.565,0.428,4.737,1.282
		S403.897,55.059,404.409,56.81z"/>
	<path fill="#FFFFFF" d="M415.158,51.988v3.44h-2.949V62c0,1.33,0.028,2.106,0.085,2.326c0.056,0.221,0.185,0.402,0.384,0.545
		c0.199,0.144,0.442,0.216,0.729,0.216c0.399,0,0.978-0.139,1.735-0.415l0.368,3.348c-1.003,0.43-2.14,0.645-3.409,0.645
		c-0.777,0-1.479-0.13-2.104-0.392c-0.625-0.261-1.083-0.599-1.374-1.013c-0.292-0.415-0.494-0.976-0.606-1.682
		c-0.093-0.502-0.139-1.516-0.139-3.041v-7.109h-1.981v-3.44h1.981v-3.24l4.33-2.519v5.758H415.158z"/>
	<path fill="#FFFFFF" d="M422.283,68.296h-4.315V51.988h4.008v2.319c0.686-1.096,1.303-1.817,1.851-2.166
		c0.548-0.348,1.169-0.521,1.865-0.521c0.983,0,1.93,0.271,2.842,0.813l-1.337,3.763c-0.727-0.471-1.402-0.707-2.026-0.707
		c-0.604,0-1.116,0.167-1.536,0.5c-0.42,0.332-0.75,0.934-0.99,1.804s-0.36,2.692-0.36,5.467V68.296z"/>
	<path fill="#FFFFFF" d="M430.392,49.777v-3.993h4.314v3.993H430.392z M430.392,68.296V51.988h4.314v16.309H430.392z"/>
	<path fill="#FFFFFF" d="M453.35,56.81l-4.254,0.768c-0.144-0.85-0.469-1.489-0.976-1.919c-0.506-0.431-1.164-0.646-1.973-0.646
		c-1.075,0-1.933,0.371-2.572,1.113c-0.64,0.743-0.96,1.983-0.96,3.724c0,1.936,0.325,3.302,0.976,4.101
		c0.649,0.799,1.522,1.197,2.618,1.197c0.818,0,1.489-0.232,2.012-0.698c0.521-0.466,0.891-1.268,1.105-2.403l4.238,0.722
		c-0.44,1.945-1.285,3.414-2.534,4.407s-2.923,1.489-5.021,1.489c-2.385,0-4.287-0.752-5.704-2.257
		c-1.419-1.505-2.127-3.589-2.127-6.25c0-2.692,0.711-4.788,2.134-6.288s3.348-2.25,5.774-2.25c1.986,0,3.565,0.428,4.737,1.282
		S452.837,55.059,453.35,56.81z"/>
	<path fill="#FFFFFF" d="M465.389,68.296V45.784h7.294c2.765,0,4.566,0.113,5.405,0.338c1.29,0.338,2.37,1.072,3.24,2.204
		s1.306,2.593,1.306,4.384c0,1.383-0.251,2.545-0.753,3.486c-0.501,0.941-1.139,1.682-1.911,2.219
		c-0.773,0.537-1.559,0.894-2.357,1.067c-1.085,0.215-2.656,0.322-4.715,0.322h-2.963v8.492H465.389z M469.935,49.592v6.389h2.487
		c1.791,0,2.989-0.117,3.594-0.354c0.604-0.235,1.077-0.604,1.42-1.105s0.515-1.086,0.515-1.751c0-0.819-0.241-1.495-0.722-2.027
		c-0.481-0.532-1.091-0.865-1.827-0.998c-0.543-0.103-1.634-0.154-3.271-0.154H469.935z"/>
	<path fill="#FFFFFF" d="M485.336,59.911c0-1.433,0.354-2.819,1.06-4.161c0.707-1.342,1.707-2.365,3.003-3.071
		c1.295-0.706,2.741-1.06,4.338-1.06c2.467,0,4.489,0.801,6.065,2.402c1.577,1.604,2.365,3.627,2.365,6.074
		c0,2.467-0.796,4.513-2.388,6.135c-1.593,1.623-3.597,2.434-6.013,2.434c-1.494,0-2.92-0.338-4.276-1.013
		c-1.356-0.676-2.388-1.667-3.095-2.972C485.69,63.374,485.336,61.785,485.336,59.911z M489.759,60.142
		c0,1.618,0.384,2.856,1.152,3.716c0.768,0.86,1.714,1.29,2.841,1.29c1.126,0,2.07-0.43,2.833-1.29
		c0.763-0.859,1.144-2.108,1.144-3.746c0-1.598-0.381-2.826-1.144-3.686c-0.763-0.86-1.707-1.29-2.833-1.29
		c-1.127,0-2.073,0.43-2.841,1.29C490.143,57.285,489.759,58.525,489.759,60.142z"/>
	<path fill="#FFFFFF" d="M508.586,68.296l-5.159-16.309h4.191l3.057,10.688l2.81-10.688h4.162l2.718,10.688l3.117-10.688h4.254
		l-5.236,16.309h-4.146l-2.811-10.488l-2.764,10.488H508.586z"/>
	<path fill="#FFFFFF" d="M539.451,63.106l4.3,0.722c-0.553,1.577-1.426,2.777-2.618,3.602s-2.685,1.235-4.477,1.235
		c-2.836,0-4.935-0.926-6.296-2.779c-1.075-1.484-1.612-3.357-1.612-5.62c0-2.702,0.706-4.819,2.119-6.351
		c1.413-1.529,3.199-2.295,5.359-2.295c2.427,0,4.341,0.801,5.743,2.402c1.402,1.604,2.073,4.058,2.012,7.364h-10.811
		c0.03,1.28,0.379,2.275,1.044,2.986c0.665,0.712,1.495,1.067,2.488,1.067c0.675,0,1.243-0.185,1.704-0.553
		S539.216,63.925,539.451,63.106z M539.698,58.744c-0.031-1.248-0.354-2.198-0.968-2.849c-0.614-0.649-1.361-0.976-2.242-0.976
		c-0.941,0-1.72,0.344-2.334,1.029s-0.916,1.617-0.906,2.795H539.698z"/>
	<path fill="#FFFFFF" d="M551.63,68.296h-4.315V51.988h4.008v2.319c0.686-1.096,1.303-1.817,1.851-2.166
		c0.548-0.348,1.169-0.521,1.865-0.521c0.983,0,1.93,0.271,2.842,0.813l-1.337,3.763c-0.727-0.471-1.402-0.707-2.026-0.707
		c-0.604,0-1.116,0.167-1.536,0.5c-0.42,0.332-0.75,0.934-0.99,1.804s-0.36,2.692-0.36,5.467V68.296z"/>
	<path fill="#FFFFFF" d="M587.64,68.296h-4.944l-1.966-5.114h-8.999l-1.857,5.114h-4.822l8.769-22.512h4.807L587.64,68.296z
		 M579.271,59.389l-3.102-8.354l-3.041,8.354H579.271z"/>
	<path fill="#FFFFFF" d="M588.5,63.643l4.33-0.66c0.185,0.84,0.558,1.477,1.121,1.912s1.352,0.652,2.365,0.652
		c1.115,0,1.955-0.204,2.519-0.614c0.378-0.286,0.567-0.67,0.567-1.151c0-0.328-0.102-0.6-0.307-0.814
		c-0.215-0.204-0.696-0.394-1.443-0.568c-3.481-0.768-5.688-1.469-6.619-2.104c-1.289-0.88-1.935-2.104-1.935-3.67
		c0-1.412,0.558-2.6,1.674-3.563s2.846-1.443,5.19-1.443c2.231,0,3.891,0.363,4.976,1.09s1.832,1.803,2.242,3.225l-4.069,0.753
		c-0.175-0.635-0.505-1.121-0.991-1.459s-1.18-0.507-2.08-0.507c-1.137,0-1.95,0.159-2.442,0.477
		c-0.327,0.225-0.491,0.517-0.491,0.875c0,0.307,0.144,0.568,0.431,0.783c0.389,0.287,1.732,0.691,4.03,1.213
		c2.299,0.522,3.903,1.162,4.814,1.92c0.9,0.768,1.352,1.838,1.352,3.209c0,1.495-0.625,2.78-1.874,3.854
		c-1.249,1.075-3.097,1.612-5.543,1.612c-2.222,0-3.98-0.45-5.275-1.351C589.746,66.412,588.9,65.189,588.5,63.643z"/>
	<path fill="#FFFFFF" d="M607.512,49.777v-3.993h4.314v3.993H607.512z M607.512,68.296V51.988h4.314v16.309H607.512z"/>
	<path fill="#FFFFFF" d="M619.474,56.963l-3.916-0.707c0.44-1.576,1.197-2.742,2.272-3.5s2.672-1.137,4.791-1.137
		c1.925,0,3.358,0.228,4.3,0.684c0.942,0.455,1.605,1.033,1.989,1.734s0.575,1.989,0.575,3.863l-0.046,5.036
		c0,1.434,0.069,2.49,0.207,3.171c0.139,0.682,0.397,1.41,0.776,2.188h-4.27c-0.112-0.286-0.251-0.712-0.414-1.274
		c-0.072-0.256-0.123-0.425-0.154-0.507c-0.737,0.717-1.525,1.254-2.364,1.612c-0.84,0.358-1.735,0.537-2.688,0.537
		c-1.68,0-3.002-0.455-3.97-1.366s-1.451-2.063-1.451-3.455c0-0.921,0.22-1.743,0.66-2.465s1.057-1.274,1.851-1.659
		c0.793-0.383,1.938-0.719,3.432-1.006c2.018-0.378,3.415-0.73,4.192-1.059v-0.43c0-0.83-0.205-1.421-0.614-1.774
		c-0.409-0.353-1.182-0.53-2.318-0.53c-0.768,0-1.367,0.152-1.797,0.453C620.088,55.676,619.74,56.205,619.474,56.963z
		 M625.247,60.465c-0.553,0.184-1.428,0.404-2.626,0.66c-1.197,0.256-1.98,0.506-2.35,0.752c-0.563,0.399-0.844,0.906-0.844,1.521
		c0,0.604,0.225,1.126,0.675,1.566c0.451,0.44,1.024,0.66,1.721,0.66c0.777,0,1.52-0.256,2.227-0.768
		c0.521-0.39,0.865-0.865,1.028-1.429c0.113-0.368,0.169-1.069,0.169-2.104V60.465z"/>
	<path fill="#FFFFFF" d="M642.631,68.296V45.968h4.545v18.535h11.303v3.793H642.631z"/>
	<path fill="#FFFFFF" d="M661.689,49.777v-3.993h4.314v3.993H661.689z M661.689,68.296V51.988h4.314v16.309H661.689z"/>
	<path fill="#FFFFFF" d="M670.103,51.988h3.978v2.228c1.423-1.73,3.117-2.596,5.083-2.596c1.044,0,1.95,0.215,2.718,0.645
		c0.769,0.43,1.397,1.08,1.889,1.951c0.717-0.871,1.49-1.521,2.319-1.951s1.715-0.645,2.656-0.645c1.198,0,2.212,0.243,3.041,0.729
		c0.829,0.487,1.448,1.201,1.858,2.143c0.296,0.697,0.445,1.822,0.445,3.379v10.427h-4.315v-9.321c0-1.617-0.148-2.662-0.445-3.133
		c-0.399-0.614-1.014-0.922-1.843-0.922c-0.604,0-1.173,0.186-1.705,0.553c-0.532,0.369-0.916,0.909-1.151,1.621
		c-0.235,0.711-0.354,1.835-0.354,3.371v7.831h-4.314v-8.938c0-1.587-0.077-2.61-0.23-3.071s-0.392-0.803-0.714-1.029
		c-0.323-0.225-0.761-0.338-1.313-0.338c-0.665,0-1.265,0.18-1.797,0.538s-0.913,0.876-1.144,1.551
		c-0.23,0.676-0.346,1.797-0.346,3.363v7.924h-4.315V51.988z"/>
	<path fill="#FFFFFF" d="M698.39,49.777v-3.993h4.314v3.993H698.39z M698.39,68.296V51.988h4.314v16.309H698.39z"/>
	<path fill="#FFFFFF" d="M714.607,51.988v3.44h-2.949V62c0,1.33,0.028,2.106,0.085,2.326c0.056,0.221,0.185,0.402,0.384,0.545
		c0.199,0.144,0.442,0.216,0.729,0.216c0.399,0,0.978-0.139,1.735-0.415l0.368,3.348c-1.003,0.43-2.14,0.645-3.409,0.645
		c-0.777,0-1.479-0.13-2.104-0.392c-0.625-0.261-1.083-0.599-1.374-1.013c-0.292-0.415-0.494-0.976-0.606-1.682
		c-0.093-0.502-0.139-1.516-0.139-3.041v-7.109h-1.981v-3.44h1.981v-3.24l4.33-2.519v5.758H714.607z"/>
	<path fill="#FFFFFF" d="M727.044,63.106l4.3,0.722c-0.553,1.577-1.426,2.777-2.618,3.602s-2.685,1.235-4.477,1.235
		c-2.836,0-4.935-0.926-6.296-2.779c-1.075-1.484-1.612-3.357-1.612-5.62c0-2.702,0.706-4.819,2.119-6.351
		c1.413-1.529,3.199-2.295,5.359-2.295c2.427,0,4.341,0.801,5.743,2.402c1.402,1.604,2.073,4.058,2.012,7.364h-10.811
		c0.03,1.28,0.379,2.275,1.044,2.986c0.665,0.712,1.495,1.067,2.488,1.067c0.675,0,1.243-0.185,1.704-0.553
		S726.809,63.925,727.044,63.106z M727.29,58.744c-0.031-1.248-0.354-2.198-0.968-2.849c-0.614-0.649-1.361-0.976-2.242-0.976
		c-0.941,0-1.72,0.344-2.334,1.029s-0.916,1.617-0.906,2.795H727.29z"/>
	<path fill="#FFFFFF" d="M750.049,68.296h-4.009v-2.396c-0.665,0.932-1.451,1.625-2.356,2.081c-0.906,0.455-1.82,0.683-2.741,0.683
		c-1.874,0-3.479-0.755-4.814-2.265s-2.004-3.616-2.004-6.319c0-2.764,0.649-4.865,1.95-6.304c1.3-1.438,2.943-2.157,4.93-2.157
		c1.821,0,3.398,0.758,4.729,2.272v-8.108h4.315V68.296z M738.531,59.789c0,1.74,0.24,2.999,0.722,3.777
		c0.696,1.126,1.669,1.688,2.918,1.688c0.992,0,1.837-0.422,2.533-1.267c0.696-0.844,1.045-2.105,1.045-3.785
		c0-1.873-0.338-3.223-1.014-4.047c-0.676-0.823-1.541-1.236-2.596-1.236c-1.023,0-1.881,0.408-2.572,1.222
		C738.877,56.955,738.531,58.171,738.531,59.789z"/>
</g>
</svg>
