<?xml version="1.0" encoding="utf-8"?>
<!-- Generator: Adobe Illustrator 16.0.0, SVG Export Plug-In . SVG Version: 6.00 Build 0)  -->
<!DOCTYPE svg PUBLIC "-//W3C//DTD SVG 1.1//EN" "http://www.w3.org/Graphics/SVG/1.1/DTD/svg11.dtd">
<svg version="1.1" id="Layer_1" xmlns="http://www.w3.org/2000/svg" xmlns:xlink="http://www.w3.org/1999/xlink" x="0px" y="0px"
	 width="752.045px" height="100.566px" viewBox="0 0 752.045 100.566" enable-background="new 0 0 752.045 100.566"
	 xml:space="preserve">
<g id="XMLID_5220_">
	<ellipse id="XMLID_5338_" fill="#FDCD3A" cx="53.811" cy="34.211" rx="52.33" ry="34.085"/>
	<g id="XMLID_5223_">
		<path id="XMLID_5236_" d="M106.606,35.225c0-0.168,0-0.379,0-0.549c0-0.171,0-0.38,0-0.55v-0.042l0,0
			c-0.169-7.223-3.802-13.938-9.799-19.43c-0.042-0.042-0.973-0.887-0.973-0.887l0,0c-4.183-3.59-9.42-6.632-15.417-8.913
			l-0.168-0.21L80.166,4.73C72.269,1.732,63.103,0,53.303,0C39.28,0,26.018,3.505,16.008,9.883C5.702,16.43,0,25.258,0,34.634
			C0,53.726,23.906,69.27,53.303,69.27C82.404,69.312,106.141,54.063,106.606,35.225L106.606,35.225L106.606,35.225z M14.233,56.429
			c0.254-0.339,1.015-1.058,2.872-1.858c3.464,3.802,7.898,7.012,12.967,9.461c-0.084,0.086-0.168,0.128-0.253,0.212
			C23.906,62.3,18.626,59.639,14.233,56.429z M94.695,14.698c-0.719,0.466-1.9,1.1-3.76,1.732
			c-3.125-3.887-7.224-7.266-12.036-9.927c0.38-0.126,0.675-0.254,0.929-0.338C85.656,8.363,90.683,11.277,94.695,14.698z
			 M52.711,21.118v12.925H37c0.042-4.814,0.592-9.334,1.521-13.475C42.702,20.865,47.39,21.076,52.711,21.118z M53.895,34.085
			V21.161c1.014,0,2.026,0,2.999,0c4.182,0,7.896-0.084,11.276-0.253c0.888,4.012,1.394,8.488,1.438,13.177H53.895z M37,35.225
			h15.711v13.979c-5.362-0.042-9.967,0.084-13.979,0.338C37.675,45.236,37.042,40.378,37,35.225z M54.317,49.248
			c-0.127,0-0.297,0-0.422,0V35.225h15.712c-0.044,5.195-0.677,10.095-1.731,14.444C63.904,49.459,59.427,49.29,54.317,49.248z
			 M67.875,19.767c-4.056,0.169-8.701,0.254-13.979,0.211V8.531c0.717,0,1.436,0,2.153,0c2.702,0,5.152-0.042,7.308-0.126
			C65.256,11.446,66.818,15.332,67.875,19.767z M52.67,8.531h0.041v11.446c-5.235-0.084-9.84-0.253-13.938-0.506
			c1.1-4.394,2.661-8.194,4.563-11.193C46.039,8.405,49.122,8.489,52.67,8.531z M42.11,8.236c-1.857,3.041-3.379,6.843-4.437,11.151
			c-4.478-0.297-8.319-0.719-11.487-1.142c2.196-4.141,5.194-7.729,8.786-10.519C36.873,7.898,39.238,8.067,42.11,8.236z
			 M37.38,20.527c-0.929,4.14-1.479,8.7-1.521,13.517H22.09c0.085-5.278,1.353-10.307,3.465-14.698
			C28.848,19.81,32.776,20.231,37.38,20.527z M35.859,35.225c0.042,5.152,0.677,10.011,1.731,14.402
			c-4.646,0.295-8.446,0.762-11.53,1.311c-2.45-4.646-3.887-10.01-3.972-15.713H35.859L35.859,35.225z M39.027,50.685
			c3.929-0.211,8.447-0.338,13.685-0.338v10.938c-3.547-0.042-6.546,0.042-9.081,0.169C41.73,58.583,40.167,54.95,39.027,50.685z
			 M53.895,50.389c0.125,0,0.253,0,0.422,0c4.982,0.042,9.376,0.21,13.264,0.422c-1.143,4.267-2.746,7.939-4.688,10.771
			c-2.491-0.126-5.364-0.211-8.701-0.295c-0.126,0-0.21,0-0.295,0L53.895,50.389L53.895,50.389z M69.016,49.755
			c1.098-4.394,1.73-9.333,1.772-14.529h13.77c-0.083,5.661-1.521,10.981-3.929,15.628C77.421,50.431,73.577,50.052,69.016,49.755z
			 M70.747,34.085c-0.042-4.688-0.55-9.166-1.438-13.221c4.729-0.254,8.657-0.634,11.911-1.099c2.026,4.308,3.21,9.166,3.294,14.317
			L70.747,34.085L70.747,34.085z M69.058,19.725c-1.057-4.394-2.577-8.236-4.436-11.362c2.871-0.126,5.278-0.296,7.224-0.549
			c3.632,2.872,6.673,6.547,8.867,10.813C77.505,19.091,73.662,19.472,69.058,19.725z M62.596,7.307
			c-2.534,0.084-5.407,0.126-8.744,0.084V1.478c0.38,0,0.718,0,1.1,0C57.78,2.069,60.399,4.139,62.596,7.307z M52.711,1.478v5.914
			H52.67c-3.252-0.042-6.125-0.126-8.573-0.211c2.195-3.041,4.729-5.068,7.518-5.66C51.994,1.478,52.374,1.478,52.711,1.478z
			 M44.137,62.172c2.407-0.084,5.279-0.168,8.616-0.125v5.785c-0.38,0-0.719,0-1.1,0C48.869,67.242,46.292,65.214,44.137,62.172z
			 M53.895,67.832v-5.785c0.084,0,0.21,0,0.295,0c3.126,0.041,5.872,0.125,8.193,0.253c-2.152,2.998-4.688,4.942-7.433,5.49
			C54.612,67.832,54.274,67.832,53.895,67.832z M26.651,51.994c3-0.508,6.673-0.931,11.235-1.226
			c1.098,4.182,2.66,7.813,4.519,10.771c-2.744,0.169-4.897,0.38-6.631,0.677C32.1,59.512,28.975,56.049,26.651,51.994z
			 M68.719,50.896c4.436,0.296,8.193,0.676,11.277,1.1c-2.365,4.098-5.491,7.646-9.208,10.307c-1.772-0.254-3.929-0.466-6.631-0.635
			C66.017,58.751,67.58,55.077,68.719,50.896z M63.904,7.265c-1.563-2.365-3.337-4.225-5.236-5.449
			c4.309,0.804,8.32,2.534,11.868,5.024C68.678,7.011,66.48,7.138,63.904,7.265z M42.828,7.096
			c-2.534-0.126-4.688-0.255-6.463-0.423c3.464-2.406,7.393-4.097,11.614-4.856C46.08,2.999,44.349,4.815,42.828,7.096z
			 M42.828,62.258c1.521,2.28,3.252,4.057,5.151,5.235c-4.097-0.76-7.938-2.362-11.36-4.688
			C38.267,62.596,40.294,62.384,42.828,62.258z M63.693,62.384c2.492,0.128,4.521,0.339,6.167,0.508
			c-3.378,2.239-7.138,3.844-11.192,4.604C60.483,66.313,62.173,64.58,63.693,62.384z M81.898,18.5
			c-2.112-4.225-5.026-7.897-8.489-10.854c1.604-0.211,2.913-0.464,3.886-0.675c4.982,2.576,9.25,5.956,12.46,9.841
			C87.811,17.401,85.276,17.993,81.898,18.5z M72.225,6.673c-2.111-1.646-4.435-2.999-6.885-4.054
			c3.676,0.845,7.182,2.026,10.391,3.547C74.76,6.336,73.619,6.504,72.225,6.673z M34.634,6.504
			C33.241,6.336,32.1,6.208,31.171,6.04c3.168-1.479,6.548-2.619,10.18-3.421C38.942,3.632,36.704,4.941,34.634,6.504z
			 M33.325,7.518c-3.422,2.872-6.294,6.462-8.404,10.561c-3.295-0.466-5.871-1.015-7.897-1.479
			c3.252-3.844,7.476-7.139,12.417-9.714C30.411,7.096,31.72,7.307,33.325,7.518z M24.371,19.175
			c-2.11,4.478-3.336,9.546-3.421,14.91H10.095c0.126-5.998,2.322-11.614,6.082-16.474C18.247,18.12,20.95,18.669,24.371,19.175z
			 M20.95,35.225c0.084,5.744,1.521,11.15,3.928,15.923c-3.337,0.634-5.701,1.354-7.477,2.07c-4.478-5.153-7.18-11.319-7.307-17.951
			H20.95V35.225z M25.469,52.204c2.238,4.015,5.236,7.52,8.784,10.308c-1.268,0.253-2.195,0.55-2.914,0.845
			c-5.152-2.365-9.587-5.491-13.093-9.25C19.894,53.472,22.217,52.796,25.469,52.204z M35.014,63.103
			c1.942,1.437,4.055,2.66,6.293,3.59c-3.167-0.718-6.208-1.688-9.039-2.914C32.945,63.524,33.832,63.313,35.014,63.103z
			 M71.55,63.145c1.226,0.169,2.196,0.38,2.956,0.549c-2.873,1.269-5.956,2.281-9.208,2.999
			C67.536,65.721,69.607,64.538,71.55,63.145z M72.352,62.511c3.59-2.788,6.59-6.335,8.87-10.392
			c3.253,0.465,5.743,0.972,7.646,1.479c-3.507,3.887-8.022,7.181-13.305,9.63C74.76,62.976,73.703,62.764,72.352,62.511z
			 M81.813,51.021c2.407-4.729,3.802-10.094,3.886-15.796h10.813c-0.127,6.378-2.618,12.334-6.802,17.359
			C87.769,52.078,85.191,51.529,81.813,51.021z M85.656,34.085c-0.085-5.194-1.226-10.096-3.253-14.486
			c3.465-0.55,6.125-1.184,8.152-1.816c3.675,4.815,5.827,10.349,5.955,16.304L85.656,34.085L85.656,34.085z M77.505,5.744
			c-0.929-0.466-1.899-0.93-2.914-1.353c1.226,0.338,2.45,0.761,3.634,1.184C78.013,5.617,77.8,5.702,77.505,5.744z M29.271,5.66
			c-0.254-0.084-0.507-0.126-0.676-0.169c1.141-0.38,2.281-0.761,3.464-1.099C31.086,4.772,30.156,5.237,29.271,5.66z
			 M30.876,64.412c0.379,0.168,0.761,0.337,1.141,0.507c-0.465-0.128-0.888-0.254-1.353-0.381
			C30.749,64.453,30.791,64.412,30.876,64.412z M76.196,64.2c0.126,0.042,0.211,0.085,0.295,0.127
			c-0.634,0.211-1.267,0.38-1.899,0.592C75.141,64.665,75.688,64.453,76.196,64.2z M77.421,64.031
			c-0.127-0.085-0.253-0.169-0.422-0.211c5.151-2.533,9.63-5.914,13.05-9.841c2.155,0.591,3.296,1.141,3.802,1.352
			C89.374,58.879,83.799,61.877,77.421,64.031z M105.127,34.085h-7.476c-0.128-6.082-2.28-11.741-5.956-16.685
			c1.9-0.675,3.125-1.353,3.929-1.899C101.452,20.78,104.958,27.158,105.127,34.085z M16.768,11.108
			c3.126-1.984,6.547-3.675,10.222-5.067c0.212,0.126,0.507,0.253,0.846,0.38c-4.814,2.619-8.913,5.998-12.038,9.842
			c-2.068-0.55-3.379-1.015-4.183-1.353C13.178,13.6,14.91,12.333,16.768,11.108z M10.644,15.797
			c0.675,0.295,2.027,0.846,4.351,1.479c-3.718,4.941-5.914,10.687-6.04,16.769H1.478C1.647,27.455,4.857,21.161,10.644,15.797z
			 M1.478,35.225h7.477c0.126,6.801,2.83,13.136,7.35,18.458c-1.774,0.845-2.619,1.604-2.999,2.069
			C6.082,50.135,1.689,42.997,1.478,35.225z M94.821,54.527c-0.169-0.126-1.225-0.76-3.928-1.563
			c4.183-5.152,6.631-11.234,6.759-17.696h7.476C104.958,42.448,101.156,49.122,94.821,54.527z"/>
		<g id="XMLID_5229_">
			<path id="XMLID_5235_" fill="#CE2027" d="M13.136,56.514c0,0,4.771,4.52,5.278,9.926l0.38,3.971
				c0.084,0.803,0.761,1.437,1.563,1.437h65.171c0.932,0,1.731-0.72,1.817-1.646c0.169-1.646,0.548-4.225,1.52-6.167
				c1.563-3.085,4.563-7.097,4.563-7.097S12.882,56.767,13.136,56.514z"/>
			<path id="XMLID_5231_" d="M85.488,72.437H20.316c-1.142,0-2.069-0.846-2.153-1.983l-0.381-3.972
				c-0.422-4.772-4.435-8.912-5.025-9.461c-0.126-0.043-0.168-0.17-0.211-0.254l-0.169-0.381l0.719-0.718l0.295,0.253
				c3.506,0.169,53.473,0.297,79.955,0.339h1.225l-0.719,0.972c-0.042,0.042-2.998,3.971-4.519,7.012
				c-0.931,1.815-1.312,4.268-1.479,5.955C87.769,71.465,86.713,72.437,85.488,72.437z M14.614,57.188
				c1.479,1.689,4.056,5.194,4.394,9.167l0.381,3.969c0.042,0.508,0.464,0.845,0.929,0.845h65.172c0.634,0,1.142-0.464,1.184-1.097
				c0.168-1.817,0.591-4.394,1.604-6.379c1.099-2.195,2.914-4.813,3.929-6.208c-4.604,0-21.752-0.044-38.858-0.085
				c-11.657-0.043-20.907-0.085-27.581-0.127c-3.76-0.042-6.886-0.042-9.123-0.085C15.754,57.188,15.121,57.188,14.614,57.188z"/>
		</g>
		<path id="XMLID_5228_" d="M85.234,79.489H21.287c-1.057,0-1.899-0.845-1.899-1.898v-1.479c0-1.054,0.844-1.897,1.899-1.897h63.946
			c1.058,0,1.899,0.846,1.899,1.897v1.479C87.135,78.645,86.291,79.489,85.234,79.489z"/>
		<path id="XMLID_5227_" d="M85.234,86.839H21.287c-1.057,0-1.899-0.845-1.899-1.898v-1.48c0-1.058,0.844-1.897,1.899-1.897h63.946
			c1.058,0,1.899,0.842,1.899,1.897v1.479C87.135,85.994,86.291,86.839,85.234,86.839z"/>
		<path id="XMLID_5226_" d="M85.234,94.188H21.287c-1.057,0-1.899-0.845-1.899-1.898V90.81c0-1.058,0.844-1.897,1.899-1.897h63.946
			c1.058,0,1.899,0.842,1.899,1.897v1.479C87.135,93.344,86.291,94.188,85.234,94.188z"/>
		<g id="XMLID_5224_">
			<path id="XMLID_5225_" d="M59.005,100.567c-1.395,0-3.125,0-5.278-0.042c-5.025-0.042-10.729-0.171-11.615-0.255
				c-1.9-0.209-4.266-4.224-5.194-5.954l1.731-0.931c1.352,2.49,3.083,4.772,3.717,4.94c1.396,0.171,18.881,0.381,21.5,0.171
				c0.761-0.975,3.295-4.521,3.59-5.153c0,0-0.042,0.129-0.042,0.254h1.941c0,1.1-4.309,6.506-4.351,6.548
				C64.707,100.441,64.538,100.567,59.005,100.567z"/>
		</g>
	</g>
	<g id="XMLID_5222_">
		<path id="XMLID_41_" d="M36.747,68.212c-0.55-0.295-1.016-0.759-1.311-1.31c-0.296-0.59-0.464-1.267-0.464-2.026
			c0-0.761,0.168-1.437,0.464-2.026c0.295-0.592,0.76-1.015,1.311-1.311c0.549-0.295,1.226-0.466,1.941-0.466
			c0.973,0,1.731,0.213,2.365,0.678v1.521c-0.296-0.254-0.634-0.465-0.972-0.55c-0.38-0.126-0.804-0.168-1.268-0.168
			c-0.718,0-1.269,0.21-1.689,0.633s-0.633,1.015-0.633,1.731c0,0.718,0.211,1.311,0.633,1.729c0.422,0.423,0.973,0.637,1.689,0.637
			c0.506,0,0.93-0.042,1.31-0.171c0.38-0.127,0.72-0.337,1.057-0.591v1.521c-0.592,0.464-1.438,0.718-2.45,0.718
			C37.972,68.677,37.295,68.51,36.747,68.212z"/>
		<path id="XMLID_43_" d="M45.447,61.201h4.773v1.311h-3.296V64.2h2.408v1.269h-2.408v1.688h3.296v1.313h-4.773V61.201z"/>
		<path id="XMLID_45_" d="M54.402,61.201h2.914c0.761,0,1.395,0.211,1.857,0.634c0.464,0.423,0.718,1.057,0.718,1.815
			c0,0.803-0.21,1.395-0.676,1.815c-0.465,0.422-1.099,0.635-1.857,0.635h-1.395v2.365h-1.479V61.2L54.402,61.201L54.402,61.201z
			 M57.062,64.791c0.845,0,1.269-0.379,1.269-1.141c0-0.423-0.127-0.719-0.337-0.888c-0.213-0.168-0.551-0.253-0.931-0.253H55.88
			v2.279L57.062,64.791L57.062,64.791z"/>
		<path id="XMLID_48_" d="M66.565,61.201h1.479l2.745,7.309h-1.521l-0.591-1.605h-2.745L65.34,68.51h-1.563L66.565,61.201z
			 M68.255,65.679l-0.971-2.788l-0.973,2.788H68.255z"/>
	</g>
	<path id="XMLID_5221_" d="M25.215,51.571c0,0-1.14-2.195,0.634-2.365c1.773-0.168,7.012,0.084,7.012,0.084l0.253-7.813
		l-1.478-0.254l8.066-3.083l7.729,2.999l-0.635,0.887l0.084,3.76L49.88,45.7v-8.363l4.014-0.084l0.168-5.151h6.208l0.17,14.444
		h4.394c0,0,1.646-6.504,1.942-9.292c0.338-2.787,0.507-26.735,0.507-26.735l3.252,0.042c0,0,0.086,23.822,0.339,27.497
		s2.11,11.149,2.11,11.149s7.266,1.226,7.604,1.731c0.34,0.507-14.993-1.142-17.611-1.057c-2.618,0.084-11.996-0.085-11.996-0.085
		s-13.136,0.169-16.559,0.509C31.001,50.6,25.215,51.571,25.215,51.571z"/>
</g>
<g>
	<path fill="#FFFFFF" d="M147.108,56.975l3.323,1.054c-0.509,1.853-1.356,3.229-2.542,4.127c-1.185,0.899-2.688,1.349-4.509,1.349
		c-2.254,0-4.106-0.77-5.557-2.31c-1.451-1.54-2.177-3.645-2.177-6.315c0-2.825,0.729-5.019,2.188-6.582
		c1.459-1.563,3.377-2.344,5.754-2.344c2.076,0,3.763,0.614,5.059,1.841c0.772,0.726,1.351,1.768,1.737,3.125l-3.392,0.811
		c-0.201-0.879-0.62-1.574-1.256-2.083c-0.637-0.51-1.411-0.764-2.321-0.764c-1.258,0-2.279,0.452-3.063,1.354
		c-0.783,0.903-1.175,2.366-1.175,4.388c0,2.146,0.386,3.674,1.158,4.585c0.771,0.911,1.775,1.366,3.01,1.366
		c0.911,0,1.694-0.289,2.35-0.868C146.351,59.129,146.822,58.219,147.108,56.975z"/>
	<path fill="#FFFFFF" d="M152.595,56.894c0-1.081,0.267-2.126,0.799-3.138c0.533-1.011,1.287-1.783,2.264-2.315
		c0.976-0.533,2.066-0.799,3.271-0.799c1.86,0,3.385,0.604,4.573,1.812s1.783,2.734,1.783,4.579c0,1.86-0.601,3.402-1.801,4.625
		c-1.2,1.224-2.711,1.836-4.532,1.836c-1.127,0-2.202-0.255-3.225-0.765c-1.023-0.51-1.8-1.256-2.333-2.24
		C152.862,59.505,152.595,58.306,152.595,56.894z M155.93,57.068c0,1.22,0.29,2.153,0.868,2.802
		c0.579,0.648,1.293,0.973,2.142,0.973s1.561-0.324,2.136-0.973c0.575-0.648,0.862-1.59,0.862-2.825c0-1.204-0.288-2.13-0.862-2.778
		c-0.575-0.648-1.287-0.973-2.136-0.973s-1.563,0.324-2.142,0.973C156.219,54.915,155.93,55.848,155.93,57.068z"/>
	<path fill="#FFFFFF" d="M179.015,63.216h-3.253V56.94c0-1.327-0.07-2.186-0.208-2.576c-0.139-0.39-0.365-0.692-0.677-0.908
		c-0.313-0.216-0.689-0.324-1.129-0.324c-0.563,0-1.069,0.154-1.517,0.463c-0.448,0.309-0.755,0.718-0.92,1.228
		c-0.166,0.509-0.249,1.451-0.249,2.825v5.568h-3.253V50.92h3.022v1.807c1.073-1.39,2.423-2.084,4.052-2.084
		c0.718,0,1.374,0.129,1.968,0.388c0.594,0.259,1.044,0.589,1.349,0.99c0.305,0.401,0.517,0.856,0.637,1.366
		c0.12,0.509,0.179,1.238,0.179,2.188V63.216z"/>
	<path fill="#FFFFFF" d="M181.169,59.708l3.265-0.498c0.139,0.633,0.42,1.113,0.845,1.441c0.424,0.328,1.019,0.492,1.783,0.492
		c0.841,0,1.474-0.154,1.899-0.463c0.285-0.217,0.428-0.506,0.428-0.869c0-0.246-0.077-0.451-0.231-0.613
		c-0.162-0.154-0.525-0.297-1.088-0.429c-2.625-0.578-4.288-1.107-4.99-1.586c-0.972-0.663-1.458-1.586-1.458-2.767
		c0-1.065,0.42-1.961,1.262-2.687c0.841-0.725,2.146-1.088,3.914-1.088c1.683,0,2.933,0.273,3.751,0.822
		c0.818,0.548,1.381,1.358,1.69,2.431l-3.068,0.567c-0.131-0.479-0.38-0.845-0.747-1.1s-0.89-0.382-1.569-0.382
		c-0.856,0-1.47,0.119-1.841,0.358c-0.247,0.17-0.371,0.39-0.371,0.66c0,0.231,0.108,0.429,0.324,0.591
		c0.293,0.216,1.307,0.521,3.039,0.914c1.733,0.394,2.943,0.876,3.63,1.447c0.679,0.579,1.019,1.386,1.019,2.42
		c0,1.127-0.471,2.096-1.412,2.906c-0.942,0.811-2.335,1.216-4.18,1.216c-1.675,0-3-0.34-3.977-1.02
		C182.108,61.796,181.47,60.873,181.169,59.708z"/>
	<path fill="#FFFFFF" d="M194.749,56.894c0-1.081,0.267-2.126,0.799-3.138c0.533-1.011,1.287-1.783,2.264-2.315
		c0.976-0.533,2.066-0.799,3.271-0.799c1.86,0,3.385,0.604,4.573,1.812s1.783,2.734,1.783,4.579c0,1.86-0.601,3.402-1.801,4.625
		c-1.2,1.224-2.711,1.836-4.532,1.836c-1.127,0-2.202-0.255-3.225-0.765c-1.023-0.51-1.8-1.256-2.333-2.24
		C195.016,59.505,194.749,58.306,194.749,56.894z M198.084,57.068c0,1.22,0.29,2.153,0.868,2.802
		c0.579,0.648,1.293,0.973,2.142,0.973s1.561-0.324,2.136-0.973c0.575-0.648,0.862-1.59,0.862-2.825c0-1.204-0.288-2.13-0.862-2.778
		c-0.575-0.648-1.287-0.973-2.136-0.973s-1.563,0.324-2.142,0.973C198.373,54.915,198.084,55.848,198.084,57.068z"/>
	<path fill="#FFFFFF" d="M209.986,63.216V46.243h3.253v16.973H209.986z"/>
	<path fill="#FFFFFF" d="M216.573,49.253v-3.01h3.253v3.01H216.573z M216.573,63.216V50.92h3.253v12.296H216.573z"/>
	<path fill="#FFFFFF" d="M234.437,63.216h-3.022V61.41c-0.501,0.702-1.094,1.225-1.777,1.568s-1.372,0.516-2.067,0.516
		c-1.412,0-2.622-0.569-3.629-1.708s-1.511-2.727-1.511-4.765c0-2.084,0.49-3.668,1.47-4.752c0.98-1.084,2.219-1.627,3.716-1.627
		c1.374,0,2.563,0.571,3.566,1.714v-6.113h3.253V63.216z M225.754,56.802c0,1.313,0.181,2.262,0.544,2.849
		c0.525,0.849,1.258,1.273,2.2,1.273c0.749,0,1.385-0.318,1.911-0.955c0.524-0.638,0.787-1.589,0.787-2.854
		c0-1.412-0.255-2.429-0.764-3.051c-0.509-0.621-1.162-0.932-1.957-0.932c-0.772,0-1.418,0.307-1.939,0.92
		C226.014,54.666,225.754,55.582,225.754,56.802z"/>
	<path fill="#FFFFFF" d="M240.076,54.672l-2.952-0.533c0.332-1.188,0.903-2.068,1.713-2.64s2.014-0.856,3.612-0.856
		c1.451,0,2.531,0.172,3.242,0.516c0.71,0.343,1.209,0.779,1.499,1.308c0.29,0.529,0.434,1.499,0.434,2.912l-0.035,3.797
		c0,1.081,0.052,1.878,0.156,2.392c0.104,0.513,0.299,1.063,0.585,1.649h-3.219c-0.085-0.216-0.189-0.536-0.313-0.961
		c-0.054-0.192-0.093-0.32-0.116-0.382c-0.556,0.54-1.15,0.945-1.783,1.216c-0.633,0.27-1.308,0.405-2.026,0.405
		c-1.266,0-2.264-0.344-2.993-1.031c-0.729-0.687-1.094-1.555-1.094-2.604c0-0.694,0.166-1.314,0.498-1.858
		c0.332-0.544,0.797-0.961,1.396-1.25c0.598-0.29,1.46-0.542,2.587-0.759c1.521-0.285,2.574-0.552,3.161-0.799v-0.324
		c0-0.625-0.154-1.07-0.463-1.337c-0.309-0.267-0.892-0.399-1.749-0.399c-0.579,0-1.03,0.114-1.354,0.342
		S240.277,54.1,240.076,54.672z M244.429,57.311c-0.417,0.139-1.077,0.305-1.979,0.497c-0.903,0.193-1.494,0.383-1.771,0.567
		c-0.425,0.302-0.637,0.684-0.637,1.146c0,0.456,0.169,0.85,0.509,1.181c0.339,0.332,0.771,0.498,1.297,0.498
		c0.586,0,1.146-0.192,1.679-0.579c0.394-0.293,0.652-0.651,0.775-1.076c0.085-0.278,0.127-0.807,0.127-1.586V57.311z"/>
	<path fill="#FFFFFF" d="M256.47,50.92v2.594h-2.223v4.955c0,1.004,0.021,1.588,0.064,1.754c0.042,0.166,0.139,0.304,0.289,0.411
		c0.151,0.108,0.334,0.162,0.55,0.162c0.301,0,0.737-0.104,1.308-0.313l0.278,2.524c-0.756,0.324-1.613,0.486-2.57,0.486
		c-0.586,0-1.115-0.099-1.586-0.296c-0.471-0.196-0.816-0.451-1.036-0.764c-0.22-0.313-0.373-0.735-0.458-1.268
		c-0.069-0.379-0.104-1.143-0.104-2.293v-5.36h-1.494V50.92h1.494v-2.442l3.265-1.899v4.341H256.47z"/>
	<path fill="#FFFFFF" d="M265.847,59.302l3.242,0.544c-0.417,1.188-1.075,2.094-1.974,2.715c-0.899,0.621-2.024,0.933-3.375,0.933
		c-2.138,0-3.72-0.699-4.747-2.096c-0.811-1.119-1.216-2.532-1.216-4.237c0-2.038,0.533-3.634,1.598-4.788
		c1.065-1.153,2.412-1.73,4.041-1.73c1.83,0,3.272,0.604,4.33,1.812s1.563,3.059,1.517,5.552h-8.15
		c0.023,0.965,0.286,1.716,0.787,2.252c0.502,0.536,1.127,0.805,1.875,0.805c0.51,0,0.938-0.139,1.285-0.417
		C265.407,60.368,265.67,59.92,265.847,59.302z M266.032,56.014c-0.023-0.941-0.266-1.657-0.729-2.147
		c-0.463-0.49-1.026-0.735-1.69-0.735c-0.71,0-1.297,0.259-1.76,0.775c-0.463,0.518-0.69,1.22-0.683,2.107H266.032z"/>
	<path fill="#FFFFFF" d="M283.191,63.216h-3.022V61.41c-0.501,0.702-1.094,1.225-1.777,1.568s-1.372,0.516-2.067,0.516
		c-1.412,0-2.622-0.569-3.629-1.708s-1.511-2.727-1.511-4.765c0-2.084,0.49-3.668,1.47-4.752c0.98-1.084,2.219-1.627,3.716-1.627
		c1.374,0,2.563,0.571,3.566,1.714v-6.113h3.253V63.216z M274.508,56.802c0,1.313,0.181,2.262,0.544,2.849
		c0.525,0.849,1.258,1.273,2.2,1.273c0.749,0,1.385-0.318,1.911-0.955c0.524-0.638,0.787-1.589,0.787-2.854
		c0-1.412-0.255-2.429-0.764-3.051c-0.509-0.621-1.162-0.932-1.957-0.932c-0.772,0-1.418,0.307-1.939,0.92
		C274.768,54.666,274.508,55.582,274.508,56.802z"/>
	<path fill="#FFFFFF" d="M293.009,63.216V46.243h12.585v2.871h-9.158v3.763h8.521v2.859h-8.521v4.62h9.482v2.859H293.009z"/>
	<path fill="#FFFFFF" d="M308.801,63.216V46.243h3.253v16.973H308.801z"/>
	<path fill="#FFFFFF" d="M322.509,59.302l3.242,0.544c-0.417,1.188-1.075,2.094-1.974,2.715c-0.899,0.621-2.024,0.933-3.375,0.933
		c-2.138,0-3.72-0.699-4.747-2.096c-0.811-1.119-1.216-2.532-1.216-4.237c0-2.038,0.533-3.634,1.598-4.788
		c1.065-1.153,2.412-1.73,4.041-1.73c1.83,0,3.272,0.604,4.33,1.812s1.563,3.059,1.517,5.552h-8.15
		c0.023,0.965,0.286,1.716,0.787,2.252c0.502,0.536,1.127,0.805,1.875,0.805c0.51,0,0.938-0.139,1.285-0.417
		C322.069,60.368,322.331,59.92,322.509,59.302z M322.694,56.014c-0.023-0.941-0.266-1.657-0.729-2.147
		c-0.463-0.49-1.026-0.735-1.69-0.735c-0.71,0-1.297,0.259-1.76,0.775c-0.463,0.518-0.69,1.22-0.683,2.107H322.694z"/>
	<path fill="#FFFFFF" d="M339.296,54.555l-3.207,0.579c-0.108-0.641-0.353-1.123-0.735-1.447c-0.382-0.324-0.878-0.486-1.488-0.486
		c-0.81,0-1.457,0.28-1.939,0.84s-0.724,1.495-0.724,2.807c0,1.459,0.245,2.489,0.735,3.092c0.49,0.602,1.148,0.903,1.974,0.903
		c0.618,0,1.123-0.176,1.517-0.527c0.394-0.351,0.672-0.955,0.834-1.812l3.195,0.544c-0.332,1.467-0.969,2.574-1.91,3.323
		c-0.942,0.748-2.204,1.123-3.786,1.123c-1.798,0-3.232-0.567-4.301-1.702c-1.069-1.135-1.604-2.705-1.604-4.712
		c0-2.03,0.537-3.61,1.609-4.741s2.524-1.696,4.354-1.696c1.497,0,2.688,0.322,3.571,0.967S338.909,53.236,339.296,54.555z"/>
	<path fill="#FFFFFF" d="M347.4,50.92v2.594h-2.223v4.955c0,1.004,0.021,1.588,0.064,1.754c0.042,0.166,0.139,0.304,0.289,0.411
		c0.151,0.108,0.334,0.162,0.55,0.162c0.301,0,0.737-0.104,1.308-0.313l0.278,2.524c-0.756,0.324-1.613,0.486-2.57,0.486
		c-0.586,0-1.115-0.099-1.586-0.296c-0.471-0.196-0.816-0.451-1.036-0.764c-0.22-0.313-0.373-0.735-0.458-1.268
		c-0.069-0.379-0.104-1.143-0.104-2.293v-5.36h-1.494V50.92h1.494v-2.442l3.265-1.899v4.341H347.4z"/>
	<path fill="#FFFFFF" d="M352.772,63.216h-3.253V50.92h3.022v1.749c0.517-0.826,0.982-1.37,1.395-1.633
		c0.413-0.262,0.881-0.394,1.407-0.394c0.741,0,1.455,0.205,2.142,0.613l-1.007,2.837c-0.548-0.355-1.058-0.532-1.528-0.532
		c-0.455,0-0.841,0.125-1.158,0.376s-0.565,0.704-0.747,1.36c-0.182,0.656-0.272,2.03-0.272,4.121V63.216z"/>
	<path fill="#FFFFFF" d="M358.885,49.253v-3.01h3.253v3.01H358.885z M358.885,63.216V50.92h3.253v12.296H358.885z"/>
	<path fill="#FFFFFF" d="M376.194,54.555l-3.207,0.579c-0.108-0.641-0.353-1.123-0.735-1.447c-0.382-0.324-0.878-0.486-1.488-0.486
		c-0.81,0-1.457,0.28-1.939,0.84s-0.724,1.495-0.724,2.807c0,1.459,0.245,2.489,0.735,3.092c0.49,0.602,1.148,0.903,1.974,0.903
		c0.618,0,1.123-0.176,1.517-0.527c0.394-0.351,0.672-0.955,0.834-1.812l3.195,0.544c-0.332,1.467-0.969,2.574-1.91,3.323
		c-0.942,0.748-2.204,1.123-3.786,1.123c-1.798,0-3.232-0.567-4.301-1.702c-1.069-1.135-1.604-2.705-1.604-4.712
		c0-2.03,0.537-3.61,1.609-4.741s2.524-1.696,4.354-1.696c1.497,0,2.688,0.322,3.571,0.967S375.807,53.236,376.194,54.555z"/>
	<path fill="#FFFFFF" d="M385.27,63.216V46.243h5.5c2.084,0,3.442,0.085,4.075,0.254c0.973,0.255,1.787,0.809,2.442,1.662
		c0.656,0.853,0.984,1.955,0.984,3.306c0,1.042-0.189,1.918-0.567,2.628s-0.858,1.268-1.441,1.673s-1.175,0.674-1.777,0.805
		c-0.817,0.162-2.003,0.243-3.554,0.243h-2.234v6.402H385.27z M388.698,49.114v4.816h1.875c1.351,0,2.254-0.089,2.709-0.267
		c0.456-0.177,0.813-0.455,1.071-0.833c0.259-0.379,0.388-0.818,0.388-1.32c0-0.617-0.182-1.127-0.544-1.528
		c-0.363-0.401-0.822-0.652-1.378-0.752c-0.409-0.077-1.231-0.116-2.466-0.116H388.698z"/>
	<path fill="#FFFFFF" d="M400.309,56.894c0-1.081,0.267-2.126,0.799-3.138c0.533-1.011,1.287-1.783,2.264-2.315
		c0.977-0.533,2.066-0.799,3.271-0.799c1.86,0,3.385,0.604,4.573,1.812s1.783,2.734,1.783,4.579c0,1.86-0.601,3.402-1.801,4.625
		c-1.2,1.224-2.711,1.836-4.532,1.836c-1.127,0-2.202-0.255-3.225-0.765s-1.8-1.256-2.333-2.24
		C400.576,59.505,400.309,58.306,400.309,56.894z M403.644,57.068c0,1.22,0.289,2.153,0.868,2.802
		c0.578,0.648,1.292,0.973,2.142,0.973c0.849,0,1.561-0.324,2.136-0.973s0.863-1.59,0.863-2.825c0-1.204-0.288-2.13-0.863-2.778
		s-1.287-0.973-2.136-0.973c-0.85,0-1.563,0.324-2.142,0.973C403.933,54.915,403.644,55.848,403.644,57.068z"/>
	<path fill="#FFFFFF" d="M417.839,63.216l-3.89-12.296h3.16l2.304,8.059l2.119-8.059h3.138l2.049,8.059l2.351-8.059h3.207
		l-3.948,12.296h-3.126l-2.118-7.907L421,63.216H417.839z"/>
	<path fill="#FFFFFF" d="M441.109,59.302l3.241,0.544c-0.416,1.188-1.074,2.094-1.974,2.715s-2.024,0.933-3.375,0.933
		c-2.138,0-3.721-0.699-4.747-2.096c-0.81-1.119-1.215-2.532-1.215-4.237c0-2.038,0.532-3.634,1.598-4.788
		c1.064-1.153,2.411-1.73,4.04-1.73c1.829,0,3.272,0.604,4.33,1.812s1.563,3.059,1.517,5.552h-8.15
		c0.023,0.965,0.285,1.716,0.787,2.252s1.127,0.805,1.876,0.805c0.509,0,0.938-0.139,1.285-0.417
		C440.669,60.368,440.931,59.92,441.109,59.302z M441.295,56.014c-0.023-0.941-0.267-1.657-0.729-2.147
		c-0.464-0.49-1.027-0.735-1.69-0.735c-0.71,0-1.297,0.259-1.76,0.775c-0.463,0.518-0.691,1.22-0.684,2.107H441.295z"/>
	<path fill="#FFFFFF" d="M450.291,63.216h-3.254V50.92h3.022v1.749c0.517-0.826,0.981-1.37,1.395-1.633
		c0.413-0.262,0.882-0.394,1.407-0.394c0.741,0,1.455,0.205,2.142,0.613l-1.007,2.837c-0.549-0.355-1.058-0.532-1.528-0.532
		c-0.456,0-0.842,0.125-1.158,0.376s-0.565,0.704-0.747,1.36c-0.181,0.656-0.271,2.03-0.271,4.121V63.216z"/>
	<path fill="#FFFFFF" d="M477.439,63.216h-3.728l-1.482-3.855h-6.784l-1.4,3.855h-3.636l6.61-16.973h3.624L477.439,63.216z
		 M471.13,56.501l-2.339-6.298l-2.292,6.298H471.13z"/>
	<path fill="#FFFFFF" d="M478.088,59.708l3.265-0.498c0.14,0.633,0.421,1.113,0.846,1.441c0.424,0.328,1.019,0.492,1.783,0.492
		c0.841,0,1.474-0.154,1.898-0.463c0.285-0.217,0.428-0.506,0.428-0.869c0-0.246-0.077-0.451-0.231-0.613
		c-0.162-0.154-0.524-0.297-1.088-0.429c-2.624-0.578-4.288-1.107-4.99-1.586c-0.973-0.663-1.459-1.586-1.459-2.767
		c0-1.065,0.421-1.961,1.263-2.687c0.841-0.725,2.146-1.088,3.913-1.088c1.683,0,2.933,0.273,3.751,0.822
		c0.818,0.548,1.382,1.358,1.69,2.431l-3.068,0.567c-0.131-0.479-0.38-0.845-0.746-1.1c-0.367-0.255-0.89-0.382-1.569-0.382
		c-0.856,0-1.471,0.119-1.841,0.358c-0.247,0.17-0.37,0.39-0.37,0.66c0,0.231,0.107,0.429,0.324,0.591
		c0.293,0.216,1.306,0.521,3.039,0.914c1.732,0.394,2.942,0.876,3.629,1.447c0.68,0.579,1.02,1.386,1.02,2.42
		c0,1.127-0.471,2.096-1.413,2.906c-0.941,0.811-2.335,1.216-4.179,1.216c-1.676,0-3.001-0.34-3.978-1.02
		C479.027,61.796,478.388,60.873,478.088,59.708z"/>
	<path fill="#FFFFFF" d="M492.422,49.253v-3.01h3.253v3.01H492.422z M492.422,63.216V50.92h3.253v12.296H492.422z"/>
	<path fill="#FFFFFF" d="M501.44,54.672l-2.952-0.533c0.332-1.188,0.903-2.068,1.714-2.64s2.015-0.856,3.612-0.856
		c1.451,0,2.531,0.172,3.241,0.516c0.71,0.343,1.21,0.779,1.5,1.308c0.289,0.529,0.434,1.499,0.434,2.912l-0.034,3.797
		c0,1.081,0.052,1.878,0.156,2.392c0.104,0.513,0.299,1.063,0.584,1.649h-3.218c-0.086-0.216-0.189-0.536-0.313-0.961
		c-0.054-0.192-0.092-0.32-0.115-0.382c-0.556,0.54-1.15,0.945-1.783,1.216c-0.633,0.27-1.309,0.405-2.026,0.405
		c-1.266,0-2.263-0.344-2.992-1.031c-0.729-0.687-1.095-1.555-1.095-2.604c0-0.694,0.166-1.314,0.498-1.858s0.797-0.961,1.396-1.25
		c0.598-0.29,1.46-0.542,2.588-0.759c1.52-0.285,2.573-0.552,3.16-0.799v-0.324c0-0.625-0.154-1.07-0.463-1.337
		s-0.892-0.399-1.748-0.399c-0.579,0-1.03,0.114-1.354,0.342S501.641,54.1,501.44,54.672z M505.794,57.311
		c-0.417,0.139-1.076,0.305-1.979,0.497c-0.903,0.193-1.494,0.383-1.771,0.567c-0.425,0.302-0.637,0.684-0.637,1.146
		c0,0.456,0.17,0.85,0.509,1.181c0.34,0.332,0.772,0.498,1.297,0.498c0.587,0,1.146-0.192,1.679-0.579
		c0.394-0.293,0.652-0.651,0.776-1.076c0.085-0.278,0.127-0.807,0.127-1.586V57.311z"/>
	<path fill="#FFFFFF" d="M518.703,63.216V46.243h3.427v16.973H518.703z"/>
	<path fill="#FFFFFF" d="M536.554,63.216h-3.253V56.94c0-1.327-0.069-2.186-0.209-2.576c-0.139-0.39-0.364-0.692-0.677-0.908
		s-0.689-0.324-1.129-0.324c-0.563,0-1.069,0.154-1.517,0.463c-0.448,0.309-0.755,0.718-0.921,1.228
		c-0.166,0.509-0.249,1.451-0.249,2.825v5.568h-3.253V50.92h3.021v1.807c1.073-1.39,2.424-2.084,4.053-2.084
		c0.718,0,1.373,0.129,1.968,0.388c0.595,0.259,1.044,0.589,1.349,0.99s0.518,0.856,0.637,1.366c0.12,0.509,0.18,1.238,0.18,2.188
		V63.216z"/>
	<path fill="#FFFFFF" d="M545.493,50.92v2.594h-2.223v4.955c0,1.004,0.021,1.588,0.063,1.754c0.043,0.166,0.14,0.304,0.29,0.411
		c0.15,0.108,0.333,0.162,0.55,0.162c0.301,0,0.737-0.104,1.309-0.313l0.277,2.524c-0.757,0.324-1.613,0.486-2.57,0.486
		c-0.587,0-1.115-0.099-1.586-0.296c-0.471-0.196-0.816-0.451-1.036-0.764s-0.373-0.735-0.457-1.268
		c-0.07-0.379-0.104-1.143-0.104-2.293v-5.36h-1.493V50.92h1.493v-2.442l3.265-1.899v4.341H545.493z"/>
	<path fill="#FFFFFF" d="M554.871,59.302l3.241,0.544c-0.416,1.188-1.074,2.094-1.974,2.715s-2.024,0.933-3.375,0.933
		c-2.138,0-3.721-0.699-4.747-2.096c-0.81-1.119-1.215-2.532-1.215-4.237c0-2.038,0.532-3.634,1.598-4.788
		c1.064-1.153,2.411-1.73,4.04-1.73c1.829,0,3.272,0.604,4.33,1.812s1.563,3.059,1.517,5.552h-8.15
		c0.023,0.965,0.285,1.716,0.787,2.252s1.127,0.805,1.876,0.805c0.509,0,0.938-0.139,1.285-0.417
		C554.43,60.368,554.693,59.92,554.871,59.302z M555.056,56.014c-0.023-0.941-0.267-1.657-0.729-2.147
		c-0.464-0.49-1.027-0.735-1.69-0.735c-0.71,0-1.297,0.259-1.76,0.775c-0.463,0.518-0.691,1.22-0.684,2.107H555.056z"/>
	<path fill="#FFFFFF" d="M564.052,63.216h-3.254V50.92h3.022v1.749c0.517-0.826,0.981-1.37,1.395-1.633
		c0.413-0.262,0.882-0.394,1.407-0.394c0.741,0,1.455,0.205,2.142,0.613l-1.007,2.837c-0.549-0.355-1.058-0.532-1.528-0.532
		c-0.456,0-0.842,0.125-1.158,0.376s-0.565,0.704-0.747,1.36c-0.181,0.656-0.271,2.03-0.271,4.121V63.216z"/>
	<path fill="#FFFFFF" d="M581.348,63.216h-3.253V56.94c0-1.327-0.069-2.186-0.209-2.576c-0.139-0.39-0.364-0.692-0.677-0.908
		s-0.689-0.324-1.129-0.324c-0.563,0-1.069,0.154-1.517,0.463c-0.448,0.309-0.755,0.718-0.921,1.228
		c-0.166,0.509-0.249,1.451-0.249,2.825v5.568h-3.253V50.92h3.021v1.807c1.073-1.39,2.424-2.084,4.053-2.084
		c0.718,0,1.373,0.129,1.968,0.388c0.595,0.259,1.044,0.589,1.349,0.99s0.518,0.856,0.637,1.366c0.12,0.509,0.18,1.238,0.18,2.188
		V63.216z"/>
	<path fill="#FFFFFF" d="M587.079,54.672l-2.952-0.533c0.332-1.188,0.903-2.068,1.714-2.64s2.015-0.856,3.612-0.856
		c1.451,0,2.531,0.172,3.241,0.516c0.71,0.343,1.21,0.779,1.5,1.308c0.289,0.529,0.434,1.499,0.434,2.912l-0.034,3.797
		c0,1.081,0.052,1.878,0.156,2.392c0.104,0.513,0.299,1.063,0.584,1.649h-3.218c-0.086-0.216-0.189-0.536-0.313-0.961
		c-0.054-0.192-0.092-0.32-0.115-0.382c-0.556,0.54-1.15,0.945-1.783,1.216c-0.633,0.27-1.309,0.405-2.026,0.405
		c-1.266,0-2.263-0.344-2.992-1.031c-0.729-0.687-1.095-1.555-1.095-2.604c0-0.694,0.166-1.314,0.498-1.858s0.797-0.961,1.396-1.25
		c0.598-0.29,1.46-0.542,2.588-0.759c1.52-0.285,2.573-0.552,3.16-0.799v-0.324c0-0.625-0.154-1.07-0.463-1.337
		s-0.892-0.399-1.748-0.399c-0.579,0-1.03,0.114-1.354,0.342S587.28,54.1,587.079,54.672z M591.432,57.311
		c-0.417,0.139-1.076,0.305-1.979,0.497c-0.903,0.193-1.494,0.383-1.771,0.567c-0.425,0.302-0.637,0.684-0.637,1.146
		c0,0.456,0.17,0.85,0.509,1.181c0.34,0.332,0.772,0.498,1.297,0.498c0.587,0,1.146-0.192,1.679-0.579
		c0.394-0.293,0.652-0.651,0.776-1.076c0.085-0.278,0.127-0.807,0.127-1.586V57.311z"/>
	<path fill="#FFFFFF" d="M603.473,50.92v2.594h-2.223v4.955c0,1.004,0.021,1.588,0.063,1.754c0.043,0.166,0.14,0.304,0.29,0.411
		c0.15,0.108,0.333,0.162,0.55,0.162c0.301,0,0.737-0.104,1.309-0.313l0.277,2.524c-0.757,0.324-1.613,0.486-2.57,0.486
		c-0.587,0-1.115-0.099-1.586-0.296c-0.471-0.196-0.816-0.451-1.036-0.764s-0.373-0.735-0.457-1.268
		c-0.07-0.379-0.104-1.143-0.104-2.293v-5.36h-1.493V50.92h1.493v-2.442l3.265-1.899v4.341H603.473z"/>
	<path fill="#FFFFFF" d="M605.731,49.253v-3.01h3.253v3.01H605.731z M605.731,63.216V50.92h3.253v12.296H605.731z"/>
	<path fill="#FFFFFF" d="M611.566,56.894c0-1.081,0.267-2.126,0.799-3.138c0.533-1.011,1.287-1.783,2.264-2.315
		c0.977-0.533,2.066-0.799,3.271-0.799c1.86,0,3.385,0.604,4.573,1.812s1.783,2.734,1.783,4.579c0,1.86-0.601,3.402-1.801,4.625
		c-1.2,1.224-2.711,1.836-4.532,1.836c-1.127,0-2.202-0.255-3.225-0.765s-1.8-1.256-2.333-2.24
		C611.833,59.505,611.566,58.306,611.566,56.894z M614.901,57.068c0,1.22,0.289,2.153,0.868,2.802
		c0.578,0.648,1.292,0.973,2.142,0.973c0.849,0,1.561-0.324,2.136-0.973s0.863-1.59,0.863-2.825c0-1.204-0.288-2.13-0.863-2.778
		s-1.287-0.973-2.136-0.973c-0.85,0-1.563,0.324-2.142,0.973C615.19,54.915,614.901,55.848,614.901,57.068z"/>
	<path fill="#FFFFFF" d="M637.986,63.216h-3.253V56.94c0-1.327-0.069-2.186-0.209-2.576c-0.139-0.39-0.364-0.692-0.677-0.908
		s-0.689-0.324-1.129-0.324c-0.563,0-1.069,0.154-1.517,0.463c-0.448,0.309-0.755,0.718-0.921,1.228
		c-0.166,0.509-0.249,1.451-0.249,2.825v5.568h-3.253V50.92h3.021v1.807c1.073-1.39,2.424-2.084,4.053-2.084
		c0.718,0,1.373,0.129,1.968,0.388c0.595,0.259,1.044,0.589,1.349,0.99s0.518,0.856,0.637,1.366c0.12,0.509,0.18,1.238,0.18,2.188
		V63.216z"/>
	<path fill="#FFFFFF" d="M643.717,54.672l-2.952-0.533c0.332-1.188,0.903-2.068,1.714-2.64s2.015-0.856,3.612-0.856
		c1.451,0,2.531,0.172,3.241,0.516c0.71,0.343,1.21,0.779,1.5,1.308c0.289,0.529,0.434,1.499,0.434,2.912l-0.034,3.797
		c0,1.081,0.052,1.878,0.156,2.392c0.104,0.513,0.299,1.063,0.584,1.649h-3.218c-0.086-0.216-0.189-0.536-0.313-0.961
		c-0.054-0.192-0.092-0.32-0.115-0.382c-0.556,0.54-1.15,0.945-1.783,1.216c-0.633,0.27-1.309,0.405-2.026,0.405
		c-1.266,0-2.263-0.344-2.992-1.031c-0.729-0.687-1.095-1.555-1.095-2.604c0-0.694,0.166-1.314,0.498-1.858s0.797-0.961,1.396-1.25
		c0.598-0.29,1.46-0.542,2.588-0.759c1.52-0.285,2.573-0.552,3.16-0.799v-0.324c0-0.625-0.154-1.07-0.463-1.337
		s-0.892-0.399-1.748-0.399c-0.579,0-1.03,0.114-1.354,0.342S643.918,54.1,643.717,54.672z M648.07,57.311
		c-0.417,0.139-1.076,0.305-1.979,0.497c-0.903,0.193-1.494,0.383-1.771,0.567c-0.425,0.302-0.637,0.684-0.637,1.146
		c0,0.456,0.17,0.85,0.509,1.181c0.34,0.332,0.772,0.498,1.297,0.498c0.587,0,1.146-0.192,1.679-0.579
		c0.394-0.293,0.652-0.651,0.776-1.076c0.085-0.278,0.127-0.807,0.127-1.586V57.311z"/>
	<path fill="#FFFFFF" d="M654.473,63.216V46.243h3.253v16.973H654.473z"/>
	<path fill="#FFFFFF" d="M667.763,63.216V46.382h3.428v13.975h8.521v2.859H667.763z"/>
	<path fill="#FFFFFF" d="M682.133,49.253v-3.01h3.253v3.01H682.133z M682.133,63.216V50.92h3.253v12.296H682.133z"/>
	<path fill="#FFFFFF" d="M688.476,50.92h2.998v1.68c1.073-1.305,2.351-1.957,3.833-1.957c0.787,0,1.47,0.162,2.049,0.486
		s1.054,0.814,1.424,1.471c0.54-0.656,1.123-1.146,1.748-1.471c0.626-0.324,1.293-0.486,2.003-0.486c0.903,0,1.668,0.184,2.293,0.55
		c0.625,0.367,1.092,0.905,1.4,1.615c0.224,0.524,0.336,1.374,0.336,2.547v7.861h-3.253v-7.027c0-1.22-0.112-2.007-0.336-2.362
		c-0.301-0.463-0.765-0.694-1.39-0.694c-0.455,0-0.884,0.139-1.285,0.417c-0.401,0.277-0.69,0.685-0.868,1.221
		c-0.178,0.537-0.267,1.384-0.267,2.542v5.904h-3.253v-6.738c0-1.196-0.058-1.968-0.174-2.315c-0.115-0.348-0.295-0.605-0.538-0.775
		s-0.573-0.255-0.99-0.255c-0.502,0-0.953,0.135-1.354,0.405s-0.688,0.66-0.862,1.169c-0.174,0.51-0.261,1.354-0.261,2.536v5.974
		h-3.253V50.92z"/>
	<path fill="#FFFFFF" d="M709.802,49.253v-3.01h3.253v3.01H709.802z M709.802,63.216V50.92h3.253v12.296H709.802z"/>
	<path fill="#FFFFFF" d="M722.028,50.92v2.594h-2.223v4.955c0,1.004,0.021,1.588,0.063,1.754c0.043,0.166,0.14,0.304,0.29,0.411
		c0.15,0.108,0.333,0.162,0.55,0.162c0.301,0,0.737-0.104,1.309-0.313l0.277,2.524c-0.757,0.324-1.613,0.486-2.57,0.486
		c-0.587,0-1.115-0.099-1.586-0.296c-0.471-0.196-0.816-0.451-1.036-0.764s-0.373-0.735-0.457-1.268
		c-0.07-0.379-0.104-1.143-0.104-2.293v-5.36h-1.493V50.92h1.493v-2.442l3.265-1.899v4.341H722.028z"/>
	<path fill="#FFFFFF" d="M731.406,59.302l3.241,0.544c-0.416,1.188-1.074,2.094-1.974,2.715s-2.024,0.933-3.375,0.933
		c-2.138,0-3.721-0.699-4.747-2.096c-0.81-1.119-1.215-2.532-1.215-4.237c0-2.038,0.532-3.634,1.598-4.788
		c1.064-1.153,2.411-1.73,4.04-1.73c1.829,0,3.272,0.604,4.33,1.812s1.563,3.059,1.517,5.552h-8.15
		c0.023,0.965,0.285,1.716,0.787,2.252s1.127,0.805,1.876,0.805c0.509,0,0.938-0.139,1.285-0.417
		C730.966,60.368,731.228,59.92,731.406,59.302z M731.592,56.014c-0.023-0.941-0.267-1.657-0.729-2.147
		c-0.464-0.49-1.027-0.735-1.69-0.735c-0.71,0-1.297,0.259-1.76,0.775c-0.463,0.518-0.691,1.22-0.684,2.107H731.592z"/>
	<path fill="#FFFFFF" d="M748.75,63.216h-3.021V61.41c-0.502,0.702-1.095,1.225-1.777,1.568c-0.684,0.344-1.372,0.516-2.066,0.516
		c-1.413,0-2.623-0.569-3.63-1.708s-1.511-2.727-1.511-4.765c0-2.084,0.49-3.668,1.471-4.752c0.979-1.084,2.219-1.627,3.716-1.627
		c1.374,0,2.563,0.571,3.566,1.714v-6.113h3.253V63.216z M740.066,56.802c0,1.313,0.182,2.262,0.545,2.849
		c0.524,0.849,1.258,1.273,2.199,1.273c0.749,0,1.386-0.318,1.91-0.955c0.525-0.638,0.787-1.589,0.787-2.854
		c0-1.412-0.254-2.429-0.764-3.051c-0.51-0.621-1.162-0.932-1.957-0.932c-0.771,0-1.418,0.307-1.938,0.92
		C740.327,54.666,740.066,55.582,740.066,56.802z"/>
</g>
</svg>
