<?xml version="1.0" encoding="utf-8"?>
<!-- Generator: Adobe Illustrator 19.0.0, SVG Export Plug-In . SVG Version: 6.00 Build 0)  -->
<svg version="1.1" id="Layer_1" xmlns="http://www.w3.org/2000/svg" xmlns:xlink="http://www.w3.org/1999/xlink" x="0px" y="0px"
	 viewBox="0 0 252.4 238.1" style="enable-background:new 0 0 252.4 238.1;" xml:space="preserve">
<style type="text/css">
	.st0{fill:#FDCD3A;}
	.st1{fill:#CE2027;}
</style>
<g id="XMLID_5220_">
	<ellipse id="XMLID_5338_" class="st0" cx="127.4" cy="81" rx="123.9" ry="80.7"/>
	<g id="XMLID_5223_">
		<path id="XMLID_5236_" d="M252.4,83.4c0-0.4,0-0.9,0-1.3s0-0.9,0-1.3v-0.1h0c-0.4-17.1-9-33-23.2-46c-0.1-0.1-2.3-2.1-2.3-2.1
			c0,0,0,0,0,0c-9.9-8.5-22.3-15.7-36.5-21.1L190,11l-0.2,0.2C171.1,4.1,149.4,0,126.2,0C93,0,61.6,8.3,37.9,23.4
			C13.5,38.9,0,59.8,0,82c0,45.2,56.6,82,126.2,82C195.1,164.1,251.3,128,252.4,83.4L252.4,83.4L252.4,83.4z M33.7,133.6
			c0.6-0.8,2.4-2.5,6.8-4.4c8.2,9,18.7,16.6,30.7,22.4c-0.2,0.2-0.4,0.3-0.6,0.5C56.6,147.5,44.1,141.2,33.7,133.6z M224.2,34.8
			c-1.7,1.1-4.5,2.6-8.9,4.1c-7.4-9.2-17.1-17.2-28.5-23.5c0.9-0.3,1.6-0.6,2.2-0.8C202.8,19.8,214.7,26.7,224.2,34.8z M124.8,50
			v30.6H87.6c0.1-11.4,1.4-22.1,3.6-31.9C101.1,49.4,112.2,49.9,124.8,50z M127.6,80.7V50.1c2.4,0,4.8,0,7.1,0
			c9.9,0,18.7-0.2,26.7-0.6c2.1,9.5,3.3,20.1,3.4,31.2H127.6z M87.6,83.4h37.2v33.1c-12.7-0.1-23.6,0.2-33.1,0.8
			C89.2,107.1,87.7,95.6,87.6,83.4z M128.6,116.6c-0.3,0-0.7,0-1,0V83.4h37.2c-0.1,12.3-1.6,23.9-4.1,34.2
			C151.3,117.1,140.7,116.7,128.6,116.6z M160.7,46.8c-9.6,0.4-20.6,0.6-33.1,0.5V20.2c1.7,0,3.4,0,5.1,0c6.4,0,12.2-0.1,17.3-0.3
			C154.5,27.1,158.2,36.3,160.7,46.8z M124.7,20.2c0,0,0.1,0,0.1,0v27.1c-12.4-0.2-23.3-0.6-33-1.2c2.6-10.4,6.3-19.4,10.8-26.5
			C109,19.9,116.3,20.1,124.7,20.2z M99.7,19.5c-4.4,7.2-8,16.2-10.5,26.4c-10.6-0.7-19.7-1.7-27.2-2.7c5.2-9.8,12.3-18.3,20.8-24.9
			C87.3,18.7,92.9,19.1,99.7,19.5z M88.5,48.6c-2.2,9.8-3.5,20.6-3.6,32H52.3c0.2-12.5,3.2-24.4,8.2-34.8
			C68.3,46.9,77.6,47.9,88.5,48.6z M84.9,83.4c0.1,12.2,1.6,23.7,4.1,34.1c-11,0.7-20,1.8-27.3,3.1c-5.8-11-9.2-23.7-9.4-37.2H84.9z
			 M92.4,120c9.3-0.5,20-0.8,32.4-0.8v25.9c-8.4-0.1-15.5,0.1-21.5,0.4C98.8,138.7,95.1,130.1,92.4,120z M127.6,119.3
			c0.3,0,0.6,0,1,0c11.8,0.1,22.2,0.5,31.4,1c-2.7,10.1-6.5,18.8-11.1,25.5c-5.9-0.3-12.7-0.5-20.6-0.7c-0.3,0-0.5,0-0.7,0V119.3z
			 M163.4,117.8c2.6-10.4,4.1-22.1,4.2-34.4h32.6c-0.2,13.4-3.6,26-9.3,37C183.3,119.4,174.2,118.5,163.4,117.8z M167.5,80.7
			c-0.1-11.1-1.3-21.7-3.4-31.3c11.2-0.6,20.5-1.5,28.2-2.6c4.8,10.2,7.6,21.7,7.8,33.9H167.5z M163.5,46.7
			c-2.5-10.4-6.1-19.5-10.5-26.9c6.8-0.3,12.5-0.7,17.1-1.3c8.6,6.8,15.8,15.5,21,25.6C183.5,45.2,174.4,46.1,163.5,46.7z
			 M148.2,17.3c-6,0.2-12.8,0.3-20.7,0.2v-14c0.9,0,1.7,0,2.6,0C136.8,4.9,143,9.8,148.2,17.3z M124.8,3.5v14c0,0-0.1,0-0.1,0
			c-7.7-0.1-14.5-0.3-20.3-0.5c5.2-7.2,11.2-12,17.8-13.4C123.1,3.5,124,3.5,124.8,3.5z M104.5,147.2c5.7-0.2,12.5-0.4,20.4-0.3
			v13.7c-0.9,0-1.7,0-2.6,0C115.7,159.2,109.6,154.4,104.5,147.2z M127.6,160.6v-13.7c0.2,0,0.5,0,0.7,0c7.4,0.1,13.9,0.3,19.4,0.6
			c-5.1,7.1-11.1,11.7-17.6,13C129.3,160.6,128.5,160.6,127.6,160.6z M63.1,123.1c7.1-1.2,15.8-2.2,26.6-2.9
			c2.6,9.9,6.3,18.5,10.7,25.5c-6.5,0.4-11.6,0.9-15.7,1.6C76,140.9,68.6,132.7,63.1,123.1z M162.7,120.5
			c10.5,0.7,19.4,1.6,26.7,2.6c-5.6,9.7-13,18.1-21.8,24.4c-4.2-0.6-9.3-1.1-15.7-1.5C156.3,139.1,160,130.4,162.7,120.5z
			 M151.3,17.2c-3.7-5.6-7.9-10-12.4-12.9c10.2,1.9,19.7,6,28.1,11.9C162.6,16.6,157.4,16.9,151.3,17.2z M101.4,16.8
			c-6-0.3-11.1-0.6-15.3-1c8.2-5.7,17.5-9.7,27.5-11.5C109.1,7.1,105,11.4,101.4,16.8z M101.4,147.4c3.6,5.4,7.7,9.6,12.2,12.4
			c-9.7-1.8-18.8-5.6-26.9-11.1C90.6,148.2,95.4,147.7,101.4,147.4z M150.8,147.7c5.9,0.3,10.7,0.8,14.6,1.2
			c-8,5.3-16.9,9.1-26.5,10.9C143.2,157,147.2,152.9,150.8,147.7z M193.9,43.8c-5-10-11.9-18.7-20.1-25.7c3.8-0.5,6.9-1.1,9.2-1.6
			c11.8,6.1,21.9,14.1,29.5,23.3C207.9,41.2,201.9,42.6,193.9,43.8z M171,15.8c-5-3.9-10.5-7.1-16.3-9.6c8.7,2,17,4.8,24.6,8.4
			C177,15,174.3,15.4,171,15.8z M82,15.4c-3.3-0.4-6-0.7-8.2-1.1c7.5-3.5,15.5-6.2,24.1-8.1C92.2,8.6,86.9,11.7,82,15.4z M78.9,17.8
			C70.8,24.6,64,33.1,59,42.8c-7.8-1.1-13.9-2.4-18.7-3.5c7.7-9.1,17.7-16.9,29.4-23C72,16.8,75.1,17.3,78.9,17.8z M57.7,45.4
			c-5,10.6-7.9,22.6-8.1,35.3H23.9c0.3-14.2,5.5-27.5,14.4-39C43.2,42.9,49.6,44.2,57.7,45.4z M49.6,83.4
			c0.2,13.6,3.6,26.4,9.3,37.7c-7.9,1.5-13.5,3.2-17.7,4.9c-10.6-12.2-17-26.8-17.3-42.5H49.6z M60.3,123.6
			c5.3,9.5,12.4,17.8,20.8,24.4c-3,0.6-5.2,1.3-6.9,2c-12.2-5.6-22.7-13-31-21.9C47.1,126.6,52.6,125,60.3,123.6z M82.9,149.4
			c4.6,3.4,9.6,6.3,14.9,8.5c-7.5-1.7-14.7-4-21.4-6.9C78,150.4,80.1,149.9,82.9,149.4z M169.4,149.5c2.9,0.4,5.2,0.9,7,1.3
			c-6.8,3-14.1,5.4-21.8,7.1C159.9,155.6,164.8,152.8,169.4,149.5z M171.3,148c8.5-6.6,15.6-15,21-24.6c7.7,1.1,13.6,2.3,18.1,3.5
			c-8.3,9.2-19,17-31.5,22.8C177,149.1,174.5,148.6,171.3,148z M193.7,120.8c5.7-11.2,9-23.9,9.2-37.4h25.6
			c-0.3,15.1-6.2,29.2-16.1,41.1C207.8,123.3,201.7,122,193.7,120.8z M202.8,80.7c-0.2-12.3-2.9-23.9-7.7-34.3
			c8.2-1.3,14.5-2.8,19.3-4.3c8.7,11.4,13.8,24.5,14.1,38.6H202.8z M183.5,13.6c-2.2-1.1-4.5-2.2-6.9-3.2c2.9,0.8,5.8,1.8,8.6,2.8
			C184.7,13.3,184.2,13.5,183.5,13.6z M69.3,13.4c-0.6-0.2-1.2-0.3-1.6-0.4c2.7-0.9,5.4-1.8,8.2-2.6C73.6,11.3,71.4,12.4,69.3,13.4z
			 M73.1,152.5c0.9,0.4,1.8,0.8,2.7,1.2c-1.1-0.3-2.1-0.6-3.2-0.9C72.8,152.6,72.9,152.5,73.1,152.5z M180.4,152
			c0.3,0.1,0.5,0.2,0.7,0.3c-1.5,0.5-3,0.9-4.5,1.4C177.9,153.1,179.2,152.6,180.4,152z M183.3,151.6c-0.3-0.2-0.6-0.4-1-0.5
			c12.2-6,22.8-14,30.9-23.3c5.1,1.4,7.8,2.7,9,3.2C211.6,139.4,198.4,146.5,183.3,151.6z M248.9,80.7h-17.7
			c-0.3-14.4-5.4-27.8-14.1-39.5c4.5-1.6,7.4-3.2,9.3-4.5C240.2,49.2,248.5,64.3,248.9,80.7z M39.7,26.3c7.4-4.7,15.5-8.7,24.2-12
			c0.5,0.3,1.2,0.6,2,0.9c-11.4,6.2-21.1,14.2-28.5,23.3c-4.9-1.3-8-2.4-9.9-3.2C31.2,32.2,35.3,29.2,39.7,26.3z M25.2,37.4
			c1.6,0.7,4.8,2,10.3,3.5c-8.8,11.7-14,25.3-14.3,39.7H3.5C3.9,65,11.5,50.1,25.2,37.4z M3.5,83.4h17.7
			c0.3,16.1,6.7,31.1,17.4,43.7c-4.2,2-6.2,3.8-7.1,4.9C14.4,118.7,4,101.8,3.5,83.4z M224.5,129.1c-0.4-0.3-2.9-1.8-9.3-3.7
			c9.9-12.2,15.7-26.6,16-41.9h17.7C248.5,100.5,239.5,116.3,224.5,129.1z"/>
		<g id="XMLID_5229_">
			<path id="XMLID_5235_" class="st1" d="M31.1,133.8c0,0,11.3,10.7,12.5,23.5l0.9,9.4c0.2,1.9,1.8,3.4,3.7,3.4h154.3
				c2.2,0,4.1-1.7,4.3-3.9c0.4-3.9,1.3-10,3.6-14.6c3.7-7.3,10.8-16.8,10.8-16.8S30.5,134.4,31.1,133.8z"/>
			<path id="XMLID_5231_" d="M202.4,171.5H48.1c-2.7,0-4.9-2-5.1-4.7l-0.9-9.4c-1-11.3-10.5-21.1-11.9-22.4
				c-0.3-0.1-0.4-0.4-0.5-0.6l-0.4-0.9l1.7-1.7l0.7,0.6c8.3,0.4,126.6,0.7,189.3,0.8l2.9,0l-1.7,2.3c-0.1,0.1-7.1,9.4-10.7,16.6
				c-2.2,4.3-3.1,10.1-3.5,14.1C207.8,169.2,205.3,171.5,202.4,171.5z M34.6,135.4c3.5,4,9.6,12.3,10.4,21.7l0.9,9.4
				c0.1,1.2,1.1,2,2.2,2h154.3c1.5,0,2.7-1.1,2.8-2.6c0.4-4.3,1.4-10.4,3.8-15.1c2.6-5.2,6.9-11.4,9.3-14.7c-10.9,0-51.5-0.1-92-0.2
				c-27.6-0.1-49.5-0.2-65.3-0.3c-8.9-0.1-16.3-0.1-21.6-0.2C37.3,135.4,35.8,135.4,34.6,135.4z"/>
		</g>
		<path id="XMLID_5228_" d="M201.8,188.2H50.4c-2.5,0-4.5-2-4.5-4.5v-3.5c0-2.5,2-4.5,4.5-4.5h151.4c2.5,0,4.5,2,4.5,4.5v3.5
			C206.3,186.2,204.3,188.2,201.8,188.2z"/>
		<path id="XMLID_5227_" d="M201.8,205.6H50.4c-2.5,0-4.5-2-4.5-4.5v-3.5c0-2.5,2-4.5,4.5-4.5h151.4c2.5,0,4.5,2,4.5,4.5v3.5
			C206.3,203.6,204.3,205.6,201.8,205.6z"/>
		<path id="XMLID_5226_" d="M201.8,223H50.4c-2.5,0-4.5-2-4.5-4.5V215c0-2.5,2-4.5,4.5-4.5h151.4c2.5,0,4.5,2,4.5,4.5v3.5
			C206.3,221,204.3,223,201.8,223z"/>
		<g id="XMLID_5224_">
			<path id="XMLID_5225_" d="M139.7,238.1c-3.3,0-7.4,0-12.5-0.1c-11.9-0.1-25.4-0.4-27.5-0.6c-4.5-0.5-10.1-10-12.3-14.1l4.1-2.2
				c3.2,5.9,7.3,11.3,8.8,11.7c3.3,0.4,44.7,0.9,50.9,0.4c1.8-2.3,7.8-10.7,8.5-12.2c0,0-0.1,0.3-0.1,0.6h4.6
				c0,2.6-10.2,15.4-10.3,15.5C153.2,237.8,152.8,238.1,139.7,238.1z"/>
		</g>
	</g>
	<g id="XMLID_5222_">
		<path id="XMLID_41_" d="M87,161.5c-1.3-0.7-2.4-1.8-3.1-3.1c-0.7-1.4-1.1-3-1.1-4.8s0.4-3.4,1.1-4.8s1.8-2.4,3.1-3.1
			c1.3-0.7,2.9-1.1,4.6-1.1c2.3,0,4.1,0.5,5.6,1.6v3.6c-0.7-0.6-1.5-1.1-2.3-1.3c-0.9-0.3-1.9-0.4-3-0.4c-1.7,0-3,0.5-4,1.5
			c-1,1-1.5,2.4-1.5,4.1c0,1.7,0.5,3.1,1.5,4.1c1,1,2.3,1.5,4,1.5c1.2,0,2.2-0.1,3.1-0.4s1.7-0.8,2.5-1.4v3.6
			c-1.4,1.1-3.4,1.7-5.8,1.7C89.9,162.6,88.3,162.2,87,161.5z"/>
		<path id="XMLID_43_" d="M107.6,144.9h11.3v3.1h-7.8v4h5.7v3h-5.7v4h7.8v3.1h-11.3V144.9z"/>
		<path id="XMLID_45_" d="M128.8,144.9h6.9c1.8,0,3.3,0.5,4.4,1.5c1.1,1,1.7,2.5,1.7,4.3c0,1.9-0.5,3.3-1.6,4.3
			c-1.1,1-2.6,1.5-4.4,1.5h-3.3v5.6h-3.5V144.9z M135.1,153.4c2,0,3-0.9,3-2.7c0-1-0.3-1.7-0.8-2.1c-0.5-0.4-1.3-0.6-2.2-0.6h-2.8
			v5.4H135.1z"/>
		<path id="XMLID_48_" d="M157.6,144.9h3.5l6.5,17.3h-3.6l-1.4-3.8h-6.5l-1.4,3.8H151L157.6,144.9z M161.6,155.5l-2.3-6.6l-2.3,6.6
			H161.6z"/>
	</g>
	<path id="XMLID_5221_" d="M59.7,122.1c0,0-2.7-5.2,1.5-5.6c4.2-0.4,16.6,0.2,16.6,0.2l0.6-18.5l-3.5-0.6L94,90.3l18.3,7.1l-1.5,2.1
		l0.2,8.9l7.1-0.2V88.4l9.5-0.2L128,76h14.7l0.4,34.2h10.4c0,0,3.9-15.4,4.6-22c0.8-6.6,1.2-63.3,1.2-63.3L167,25
		c0,0,0.2,56.4,0.8,65.1c0.6,8.7,5,26.4,5,26.4s17.2,2.9,18,4.1c0.8,1.2-35.5-2.7-41.7-2.5s-28.4-0.2-28.4-0.2s-31.1,0.4-39.2,1.2
		C73.4,119.8,59.7,122.1,59.7,122.1z"/>
</g>
</svg>
