<?xml version="1.0" encoding="utf-8"?>
<!-- Generator: Adobe Illustrator 16.0.0, SVG Export Plug-In . SVG Version: 6.00 Build 0)  -->
<!DOCTYPE svg PUBLIC "-//W3C//DTD SVG 1.1//EN" "http://www.w3.org/Graphics/SVG/1.1/DTD/svg11.dtd">
<svg version="1.1" id="Layer_1" xmlns="http://www.w3.org/2000/svg" xmlns:xlink="http://www.w3.org/1999/xlink" x="0px" y="0px"
	 width="106.606px" height="100.567px" viewBox="0 0 106.606 100.567" enable-background="new 0 0 106.606 100.567"
	 xml:space="preserve">
<g id="XMLID_5220_">
	<ellipse id="XMLID_5338_" fill="#FDCD3A" cx="53.811" cy="34.211" rx="52.33" ry="34.085"/>
	<g id="XMLID_5223_">
		<path id="XMLID_5236_" d="M106.606,35.225c0-0.168,0-0.379,0-0.549s0-0.379,0-0.549v-0.042l0,0
			c-0.169-7.222-3.802-13.938-9.799-19.429c-0.042-0.042-0.972-0.887-0.972-0.887l0,0c-4.182-3.59-9.42-6.632-15.417-8.913
			L80.25,4.646L80.166,4.73C72.269,1.732,63.103,0,53.303,0C39.28,0,26.018,3.505,16.008,9.883C5.702,16.43,0,25.258,0,34.634
			C0,53.726,23.906,69.27,53.303,69.27C82.404,69.312,106.141,54.063,106.606,35.225L106.606,35.225L106.606,35.225z M14.233,56.429
			c0.254-0.338,1.014-1.057,2.872-1.858c3.464,3.801,7.899,7.011,12.967,9.461c-0.084,0.085-0.168,0.127-0.253,0.211
			C23.906,62.3,18.626,59.639,14.233,56.429z M94.695,14.698c-0.719,0.465-1.901,1.099-3.76,1.732
			c-3.125-3.886-7.223-7.265-12.036-9.926c0.38-0.126,0.675-0.254,0.928-0.338C85.657,8.363,90.683,11.277,94.695,14.698z
			 M52.711,21.118v12.925H37c0.042-4.815,0.592-9.334,1.521-13.474C42.702,20.865,47.39,21.076,52.711,21.118z M53.895,34.085
			V21.161c1.013,0,2.027,0,2.999,0c4.181,0,7.897-0.084,11.277-0.253c0.887,4.012,1.393,8.489,1.437,13.177H53.895z M37,35.225
			h15.711v13.98c-5.363-0.042-9.967,0.084-13.979,0.338C37.675,45.236,37.042,40.378,37,35.225z M54.317,49.248
			c-0.127,0-0.297,0-0.422,0V35.225h15.712c-0.044,5.196-0.677,10.095-1.732,14.445C63.904,49.459,59.427,49.29,54.317,49.248z
			 M67.875,19.767c-4.055,0.169-8.701,0.254-13.98,0.211V8.532c0.717,0,1.435,0,2.154,0c2.702,0,5.152-0.042,7.307-0.126
			C65.256,11.446,66.818,15.332,67.875,19.767z M52.67,8.532h0.041v11.446c-5.236-0.084-9.84-0.253-13.938-0.506
			c1.099-4.393,2.661-8.194,4.562-11.193C46.039,8.405,49.122,8.489,52.67,8.532z M42.11,8.236
			c-1.858,3.041-3.379,6.842-4.436,11.151c-4.477-0.296-8.32-0.718-11.488-1.141c2.197-4.14,5.195-7.73,8.786-10.518
			C36.873,7.898,39.238,8.067,42.11,8.236z M37.38,20.527c-0.929,4.139-1.479,8.7-1.521,13.516H22.09
			c0.085-5.279,1.352-10.306,3.464-14.699C28.848,19.81,32.776,20.231,37.38,20.527z M35.859,35.225
			c0.042,5.153,0.676,10.011,1.732,14.403c-4.646,0.295-8.447,0.761-11.531,1.31c-2.45-4.646-3.886-10.01-3.971-15.713H35.859
			L35.859,35.225z M39.027,50.685c3.928-0.211,8.447-0.338,13.684-0.338v10.939c-3.547-0.042-6.546,0.042-9.081,0.169
			C41.73,58.583,40.167,54.95,39.027,50.685z M53.895,50.389c0.125,0,0.253,0,0.422,0c4.983,0.042,9.376,0.21,13.263,0.422
			c-1.142,4.266-2.746,7.94-4.689,10.77c-2.491-0.126-5.364-0.211-8.701-0.295c-0.126,0-0.21,0-0.295,0V50.389z M69.016,49.755
			c1.098-4.393,1.731-9.333,1.773-14.53h13.769c-0.083,5.661-1.52,10.982-3.928,15.628C77.421,50.431,73.577,50.051,69.016,49.755z
			 M70.747,34.085c-0.042-4.688-0.549-9.166-1.437-13.22c4.73-0.254,8.658-0.634,11.911-1.099c2.027,4.308,3.21,9.166,3.294,14.318
			H70.747z M69.058,19.725c-1.056-4.393-2.577-8.236-4.435-11.362c2.871-0.126,5.279-0.296,7.223-0.549
			c3.632,2.872,6.673,6.547,8.868,10.813C77.505,19.091,73.662,19.472,69.058,19.725z M62.596,7.307
			c-2.534,0.084-5.407,0.126-8.744,0.084V1.478c0.38,0,0.718,0,1.099,0C57.78,2.069,60.399,4.139,62.596,7.307z M52.711,1.478v5.914
			H52.67c-3.252-0.042-6.125-0.126-8.574-0.211c2.196-3.041,4.73-5.068,7.518-5.66C51.994,1.478,52.374,1.478,52.711,1.478z
			 M44.137,62.172c2.408-0.084,5.28-0.168,8.617-0.125v5.785c-0.38,0-0.719,0-1.099,0C48.869,67.242,46.292,65.214,44.137,62.172z
			 M53.895,67.832v-5.785c0.084,0,0.21,0,0.295,0c3.126,0.041,5.872,0.125,8.194,0.253c-2.153,2.998-4.688,4.942-7.433,5.49
			C54.612,67.832,54.274,67.832,53.895,67.832z M26.651,51.994c3-0.507,6.673-0.93,11.235-1.225
			c1.098,4.181,2.661,7.814,4.519,10.77c-2.745,0.169-4.898,0.38-6.631,0.677C32.1,59.512,28.975,56.049,26.651,51.994z
			 M68.719,50.896c4.436,0.296,8.194,0.676,11.278,1.099c-2.365,4.097-5.491,7.645-9.208,10.306
			c-1.773-0.253-3.928-0.465-6.631-0.634C66.017,58.751,67.58,55.077,68.719,50.896z M63.904,7.265
			c-1.563-2.365-3.337-4.224-5.237-5.449c4.308,0.803,8.321,2.534,11.868,5.025C68.678,7.011,66.48,7.138,63.904,7.265z
			 M42.828,7.096c-2.534-0.126-4.688-0.254-6.462-0.422c3.463-2.407,7.392-4.097,11.614-4.857
			C46.08,2.999,44.349,4.815,42.828,7.096z M42.828,62.258c1.521,2.28,3.252,4.056,5.152,5.235
			c-4.096-0.759-7.939-2.362-11.361-4.687C38.267,62.596,40.294,62.384,42.828,62.258z M63.693,62.384
			c2.492,0.127,4.52,0.338,6.167,0.507c-3.378,2.24-7.138,3.844-11.193,4.603C60.483,66.313,62.173,64.58,63.693,62.384z
			 M81.898,18.5c-2.113-4.224-5.027-7.898-8.49-10.855c1.604-0.211,2.914-0.464,3.886-0.675c4.983,2.577,9.25,5.956,12.46,9.841
			C87.811,17.401,85.276,17.993,81.898,18.5z M72.225,6.673c-2.111-1.647-4.434-2.999-6.884-4.054
			c3.675,0.845,7.181,2.027,10.39,3.547C74.76,6.336,73.619,6.504,72.225,6.673z M34.634,6.504C33.241,6.336,32.1,6.208,31.171,6.04
			c3.168-1.479,6.547-2.619,10.179-3.421C38.942,3.632,36.704,4.941,34.634,6.504z M33.325,7.518
			c-3.421,2.872-6.293,6.462-8.404,10.56c-3.295-0.465-5.871-1.014-7.898-1.479c3.252-3.843,7.475-7.138,12.417-9.714
			C30.411,7.096,31.72,7.307,33.325,7.518z M24.371,19.175c-2.111,4.477-3.336,9.545-3.421,14.91H10.095
			c0.126-5.998,2.323-11.615,6.082-16.473C18.247,18.12,20.95,18.669,24.371,19.175z M20.95,35.225
			c0.084,5.744,1.521,11.151,3.928,15.923c-3.337,0.634-5.702,1.353-7.476,2.07c-4.477-5.153-7.18-11.319-7.307-17.951H20.95V35.225
			z M25.469,52.204c2.239,4.014,5.237,7.519,8.785,10.307c-1.267,0.253-2.196,0.55-2.914,0.845
			c-5.153-2.365-9.587-5.491-13.093-9.25C19.894,53.472,22.217,52.796,25.469,52.204z M35.014,63.103
			c1.943,1.436,4.055,2.66,6.293,3.59c-3.167-0.718-6.208-1.689-9.039-2.914C32.945,63.524,33.832,63.313,35.014,63.103z
			 M71.55,63.145c1.225,0.169,2.196,0.38,2.956,0.549c-2.873,1.268-5.956,2.281-9.208,2.999
			C67.536,65.721,69.607,64.538,71.55,63.145z M72.352,62.511c3.59-2.788,6.59-6.335,8.87-10.391
			c3.253,0.465,5.744,0.972,7.645,1.479c-3.506,3.887-8.023,7.181-13.304,9.63C74.76,62.976,73.703,62.764,72.352,62.511z
			 M81.813,51.021c2.407-4.73,3.802-10.094,3.886-15.796h10.813c-0.127,6.378-2.618,12.334-6.801,17.36
			C87.769,52.078,85.191,51.529,81.813,51.021z M85.657,34.085c-0.085-5.195-1.226-10.095-3.253-14.487
			c3.464-0.549,6.125-1.183,8.152-1.816c3.675,4.815,5.828,10.348,5.955,16.303H85.657z M77.505,5.744
			c-0.929-0.465-1.9-0.929-2.914-1.352c1.225,0.338,2.45,0.761,3.633,1.183C78.013,5.617,77.8,5.702,77.505,5.744z M29.271,5.66
			c-0.254-0.084-0.507-0.126-0.676-0.169c1.141-0.379,2.282-0.76,3.464-1.098C31.086,4.772,30.157,5.237,29.271,5.66z
			 M30.876,64.412c0.379,0.168,0.76,0.337,1.14,0.507c-0.465-0.128-0.887-0.254-1.352-0.381
			C30.749,64.453,30.791,64.412,30.876,64.412z M76.196,64.2c0.126,0.042,0.211,0.085,0.295,0.127
			c-0.634,0.211-1.267,0.38-1.9,0.592C75.141,64.665,75.688,64.453,76.196,64.2z M77.421,64.031
			c-0.127-0.085-0.253-0.169-0.422-0.211c5.152-2.534,9.63-5.914,13.05-9.841c2.155,0.591,3.295,1.14,3.801,1.351
			C89.374,58.879,83.799,61.877,77.421,64.031z M105.127,34.085h-7.475c-0.128-6.082-2.281-11.742-5.956-16.684
			c1.9-0.675,3.125-1.352,3.928-1.9C101.452,20.78,104.958,27.158,105.127,34.085z M16.768,11.108
			c3.126-1.985,6.547-3.675,10.222-5.068c0.211,0.126,0.506,0.253,0.845,0.38c-4.815,2.619-8.913,5.998-12.038,9.841
			c-2.069-0.549-3.379-1.014-4.182-1.352C13.178,13.6,14.91,12.333,16.768,11.108z M10.644,15.797
			c0.675,0.295,2.028,0.845,4.35,1.478c-3.717,4.942-5.914,10.686-6.04,16.768H1.478C1.647,27.455,4.857,21.161,10.644,15.797z
			 M1.478,35.225h7.476c0.126,6.801,2.83,13.136,7.349,18.458c-1.774,0.845-2.619,1.605-2.999,2.07
			C6.082,50.135,1.689,42.997,1.478,35.225z M94.821,54.527c-0.169-0.126-1.225-0.76-3.928-1.563
			c4.182-5.153,6.631-11.235,6.759-17.697h7.475C104.958,42.448,101.157,49.122,94.821,54.527z"/>
		<g id="XMLID_5229_">
			<path id="XMLID_5235_" fill="#CE2027" d="M13.136,56.514c0,0,4.772,4.519,5.279,9.926l0.38,3.97
				c0.084,0.803,0.76,1.436,1.563,1.436h65.171c0.931,0,1.731-0.719,1.817-1.646c0.169-1.647,0.548-4.224,1.52-6.167
				c1.563-3.084,4.562-7.096,4.562-7.096S12.882,56.767,13.136,56.514z"/>
			<path id="XMLID_5231_" d="M85.488,72.437H20.316c-1.141,0-2.07-0.845-2.154-1.984l-0.38-3.971
				c-0.422-4.773-4.435-8.912-5.026-9.461c-0.126-0.043-0.168-0.17-0.211-0.254l-0.169-0.381l0.718-0.717l0.295,0.253
				c3.506,0.169,53.473,0.296,79.955,0.338h1.225l-0.719,0.972c-0.042,0.042-2.998,3.97-4.518,7.011
				c-0.93,1.816-1.311,4.267-1.479,5.956C87.769,71.465,86.713,72.437,85.488,72.437z M14.614,57.188
				c1.479,1.69,4.055,5.195,4.393,9.167l0.38,3.969c0.042,0.507,0.464,0.844,0.929,0.844h65.172c0.633,0,1.141-0.464,1.183-1.096
				c0.168-1.818,0.59-4.394,1.605-6.379c1.098-2.196,2.914-4.814,3.928-6.208c-4.604,0-21.752-0.044-38.859-0.085
				c-11.657-0.043-20.907-0.085-27.581-0.127c-3.759-0.042-6.885-0.042-9.123-0.085C15.754,57.188,15.121,57.188,14.614,57.188z"/>
		</g>
		<path id="XMLID_5228_" d="M85.234,79.489H21.287c-1.056,0-1.9-0.845-1.9-1.899V76.11c0-1.054,0.844-1.898,1.9-1.898h63.947
			c1.057,0,1.9,0.845,1.9,1.898v1.479C87.135,78.645,86.291,79.489,85.234,79.489z"/>
		<path id="XMLID_5227_" d="M85.234,86.839H21.287c-1.056,0-1.9-0.845-1.9-1.899V83.46c0-1.057,0.844-1.898,1.9-1.898h63.947
			c1.057,0,1.9,0.842,1.9,1.898v1.479C87.135,85.994,86.291,86.839,85.234,86.839z"/>
		<path id="XMLID_5226_" d="M85.234,94.188H21.287c-1.056,0-1.9-0.845-1.9-1.899V90.81c0-1.057,0.844-1.898,1.9-1.898h63.947
			c1.057,0,1.9,0.842,1.9,1.898v1.479C87.135,93.344,86.291,94.188,85.234,94.188z"/>
		<g id="XMLID_5224_">
			<path id="XMLID_5225_" d="M59.005,100.567c-1.394,0-3.125,0-5.279-0.042c-5.026-0.042-10.729-0.171-11.615-0.255
				c-1.901-0.209-4.266-4.223-5.195-5.954l1.732-0.931c1.351,2.491,3.083,4.773,3.717,4.941c1.394,0.171,18.88,0.381,21.5,0.171
				c0.76-0.974,3.294-4.52,3.589-5.154c0,0-0.042,0.129-0.042,0.254h1.942c0,1.1-4.308,6.506-4.35,6.548
				C64.707,100.441,64.538,100.567,59.005,100.567z"/>
		</g>
	</g>
	<g id="XMLID_5222_">
		<path id="XMLID_41_" d="M36.747,68.212c-0.549-0.295-1.015-0.759-1.31-1.309c-0.296-0.59-0.464-1.267-0.464-2.027
			c0-0.76,0.168-1.436,0.464-2.027c0.295-0.591,0.76-1.014,1.31-1.31c0.549-0.295,1.225-0.465,1.942-0.465
			c0.972,0,1.732,0.212,2.365,0.677v1.521c-0.295-0.254-0.633-0.465-0.971-0.55c-0.38-0.126-0.803-0.168-1.267-0.168
			c-0.718,0-1.268,0.21-1.69,0.633c-0.422,0.423-0.633,1.014-0.633,1.732c0,0.718,0.211,1.31,0.633,1.729
			c0.422,0.423,0.972,0.636,1.69,0.636c0.506,0,0.929-0.042,1.309-0.17c0.38-0.127,0.719-0.337,1.056-0.591v1.521
			c-0.591,0.464-1.437,0.717-2.45,0.717C37.972,68.677,37.295,68.509,36.747,68.212z"/>
		<path id="XMLID_43_" d="M45.447,61.201h4.773v1.31h-3.295V64.2h2.408v1.268h-2.408v1.688h3.295v1.311h-4.773V61.201z"/>
		<path id="XMLID_45_" d="M54.402,61.201h2.914c0.76,0,1.394,0.211,1.858,0.634s0.717,1.056,0.717,1.816
			c0,0.802-0.21,1.394-0.675,1.816c-0.465,0.422-1.099,0.633-1.858,0.633h-1.394v2.366h-1.478v-7.266H54.402z M57.062,64.791
			c0.845,0,1.268-0.379,1.268-1.14c0-0.423-0.127-0.719-0.337-0.888c-0.212-0.168-0.55-0.253-0.93-0.253H55.88v2.28H57.062
			L57.062,64.791z"/>
		<path id="XMLID_48_" d="M66.565,61.201h1.479l2.745,7.308h-1.521l-0.591-1.605h-2.745l-0.592,1.605h-1.563L66.565,61.201z
			 M68.255,65.679l-0.971-2.788l-0.972,2.788H68.255z"/>
	</g>
	<path id="XMLID_5221_" d="M25.215,51.571c0,0-1.14-2.196,0.633-2.366c1.774-0.168,7.012,0.084,7.012,0.084l0.253-7.813
		l-1.478-0.254l8.067-3.083l7.729,2.999l-0.634,0.887l0.084,3.759l2.999-0.084v-8.363l4.013-0.084l0.168-5.152h6.208l0.17,14.445
		h4.393c0,0,1.646-6.504,1.943-9.292c0.338-2.787,0.507-26.736,0.507-26.736l3.251,0.042c0,0,0.086,23.823,0.339,27.497
		c0.253,3.675,2.111,11.15,2.111,11.15s7.265,1.225,7.603,1.732c0.339,0.507-14.994-1.141-17.612-1.056
		c-2.618,0.084-11.996-0.085-11.996-0.085s-13.136,0.169-16.558,0.508C31.001,50.6,25.215,51.571,25.215,51.571z"/>
</g>
</svg>
